<svg width="13" height="13" viewBox="0 0 13 13" fill="none" xmlns="http://www.w3.org/2000/svg">
<path d="M11.7867 8.62337L8.32 2.38337C7.85417 1.54379 7.20959 1.08337 6.5 1.08337C5.79042 1.08337 5.14584 1.54379 4.68 2.38337L1.21334 8.62337C0.774586 9.41962 0.725836 10.1834 1.07792 10.7846C1.43 11.3859 2.12334 11.7163 3.03334 11.7163H9.96667C10.8767 11.7163 11.57 11.3859 11.9221 10.7846C12.2742 10.1834 12.2254 9.41421 11.7867 8.62337ZM6.09375 4.87504C6.09375 4.65296 6.27792 4.46879 6.5 4.46879C6.72209 4.46879 6.90625 4.65296 6.90625 4.87504V7.58337C6.90625 7.80546 6.72209 7.98962 6.5 7.98962C6.27792 7.98962 6.09375 7.80546 6.09375 7.58337V4.87504ZM6.88459 9.59296C6.8575 9.61462 6.83042 9.63629 6.80334 9.65796C6.77084 9.67962 6.73834 9.69587 6.70584 9.70671C6.67334 9.72296 6.64084 9.73379 6.60292 9.73921C6.57042 9.74462 6.5325 9.75004 6.5 9.75004C6.4675 9.75004 6.42959 9.74462 6.39167 9.73921C6.35917 9.73379 6.32667 9.72296 6.29417 9.70671C6.26167 9.69587 6.22917 9.67962 6.19667 9.65796C6.16959 9.63629 6.1425 9.61462 6.11542 9.59296C6.01792 9.49004 5.95834 9.34921 5.95834 9.20837C5.95834 9.06754 6.01792 8.92671 6.11542 8.82379C6.1425 8.80212 6.16959 8.78046 6.19667 8.75879C6.22917 8.73712 6.26167 8.72087 6.29417 8.71004C6.32667 8.69379 6.35917 8.68296 6.39167 8.67754C6.46209 8.66129 6.53792 8.66129 6.60292 8.67754C6.64084 8.68296 6.67334 8.69379 6.70584 8.71004C6.73834 8.72087 6.77084 8.73712 6.80334 8.75879C6.83042 8.78046 6.8575 8.80212 6.88459 8.82379C6.98209 8.92671 7.04167 9.06754 7.04167 9.20837C7.04167 9.34921 6.98209 9.49004 6.88459 9.59296Z" fill="#E6D434"/>
</svg>
