<svg width="167" height="33" viewBox="0 0 167 33" fill="none" xmlns="http://www.w3.org/2000/svg">
<path d="M3.0871 6.13281V5.03906H4.42011C5.62324 5.03906 6.47089 4.30762 6.47089 3.27539C6.47089 2.25684 5.71894 1.62109 4.50898 1.62109C3.28535 1.62109 2.49238 2.25 2.38984 3.28906H1.19355C1.3166 1.58008 2.59492 0.527344 4.55683 0.527344C6.40253 0.527344 7.72187 1.62793 7.72187 3.16602C7.72187 4.25977 6.97675 5.18945 5.88984 5.45605V5.51074C7.20234 5.68164 8.00898 6.625 8.00898 7.96484C8.00898 9.5918 6.48457 10.8564 4.53632 10.8564C2.4582 10.8564 1.01582 9.73535 0.926949 8.05371H2.1164C2.22578 9.09277 3.16914 9.7627 4.52265 9.7627C5.84199 9.7627 6.74433 9.01758 6.74433 7.93066C6.74433 6.80273 5.89668 6.13281 4.4748 6.13281H3.0871ZM11.7072 9.73535C12.8283 9.73535 13.6896 8.94922 13.6896 7.92383V7.34277L11.7893 7.45898C10.8322 7.52051 10.2853 7.94434 10.2853 8.61426C10.2853 9.29102 10.8527 9.73535 11.7072 9.73535ZM11.4406 10.7471C10.0256 10.7471 9.07539 9.89258 9.07539 8.61426C9.07539 7.39746 10.0119 6.63184 11.6525 6.53613L13.6896 6.41992V5.8252C13.6896 4.95703 13.1154 4.4375 12.1311 4.4375C11.215 4.4375 10.6408 4.86816 10.4904 5.56543H9.34199C9.42402 4.33496 10.4768 3.3916 12.1584 3.3916C13.8264 3.3916 14.8791 4.29395 14.8791 5.70898V10.624H13.7512V9.40039H13.7238C13.3 10.2139 12.3977 10.7471 11.4406 10.7471ZM19.9787 3.3916C21.7902 3.3916 23.0207 4.84082 23.0207 7.06934C23.0207 9.29785 21.7971 10.7471 20.0061 10.7471C18.9875 10.7471 18.1672 10.248 17.7434 9.46875H17.716V12.9961H16.5266V3.51465H17.6545V4.71777H17.6818C18.1193 3.91797 18.9465 3.3916 19.9787 3.3916ZM19.7463 9.70117C21.0109 9.70117 21.8039 8.68262 21.8039 7.06934C21.8039 5.46289 21.0109 4.4375 19.7463 4.4375C18.5295 4.4375 17.7092 5.49023 17.7092 7.06934C17.7092 8.65527 18.5295 9.70117 19.7463 9.70117ZM26.6916 9.73535C27.8127 9.73535 28.674 8.94922 28.674 7.92383V7.34277L26.7736 7.45898C25.8166 7.52051 25.2697 7.94434 25.2697 8.61426C25.2697 9.29102 25.8371 9.73535 26.6916 9.73535ZM26.425 10.7471C25.01 10.7471 24.0598 9.89258 24.0598 8.61426C24.0598 7.39746 24.9963 6.63184 26.6369 6.53613L28.674 6.41992V5.8252C28.674 4.95703 28.0998 4.4375 27.1154 4.4375C26.1994 4.4375 25.6252 4.86816 25.4748 5.56543H24.3264C24.4084 4.33496 25.4611 3.3916 27.1428 3.3916C28.8107 3.3916 29.8635 4.29395 29.8635 5.70898V10.624H28.7355V9.40039H28.7082C28.2844 10.2139 27.382 10.7471 26.425 10.7471ZM34.5529 10.7471C32.3723 10.7471 31.2238 9.28418 31.2238 6.46094C31.2238 2.53711 32.2629 0.90332 35.0246 0.800781L35.551 0.780273C36.2346 0.746094 37.0002 0.609375 37.4035 0.397461V1.43652C37.1779 1.6416 36.426 1.81934 35.6057 1.85352L35.0793 1.87402C33.1037 1.94922 32.5158 2.81738 32.2287 4.94336H32.2834C32.7482 4.10254 33.6369 3.66504 34.7307 3.66504C36.6516 3.66504 37.8752 5.01855 37.8752 7.1377C37.8752 9.37305 36.6105 10.7471 34.5529 10.7471ZM34.5529 9.69434C35.8859 9.69434 36.6584 8.77148 36.6584 7.1377C36.6584 5.58594 35.8859 4.7041 34.5529 4.7041C33.2131 4.7041 32.4406 5.58594 32.4406 7.1377C32.4406 8.77148 33.2131 9.69434 34.5529 9.69434ZM41.5529 9.73535C42.674 9.73535 43.5353 8.94922 43.5353 7.92383V7.34277L41.635 7.45898C40.6779 7.52051 40.1311 7.94434 40.1311 8.61426C40.1311 9.29102 40.6984 9.73535 41.5529 9.73535ZM41.2863 10.7471C39.8713 10.7471 38.9211 9.89258 38.9211 8.61426C38.9211 7.39746 39.8576 6.63184 41.4982 6.53613L43.5353 6.41992V5.8252C43.5353 4.95703 42.9611 4.4375 41.9768 4.4375C41.0607 4.4375 40.4865 4.86816 40.3361 5.56543H39.1877C39.2697 4.33496 40.3225 3.3916 42.0041 3.3916C43.6721 3.3916 44.7248 4.29395 44.7248 5.70898V10.624H43.5969V9.40039H43.5695C43.1457 10.2139 42.2434 10.7471 41.2863 10.7471ZM51.4309 3.51465V4.49219H49.134V10.624H47.9582V4.49219H45.6613V3.51465H51.4309ZM58.6154 10.624V3.51465H59.7912V10.624H58.6154ZM55.0334 6.76172H53.7072V9.64648H55.0334C55.9562 9.64648 56.551 9.07227 56.551 8.2041C56.551 7.3291 55.9494 6.76172 55.0334 6.76172ZM52.5314 10.624V3.51465H53.7072V5.78418H55.0539C56.6809 5.78418 57.7268 6.7207 57.7268 8.2041C57.7268 9.6875 56.6809 10.624 55.0539 10.624H52.5314ZM64.3371 4.47852H62.635V6.46777H64.1594C65.0549 6.46777 65.4855 6.13965 65.4855 5.45605C65.4855 4.82715 65.0822 4.47852 64.3371 4.47852ZM64.2551 7.4248H62.635V9.66016H64.467C65.3283 9.66016 65.7932 9.27051 65.7932 8.55273C65.7932 7.79395 65.2941 7.4248 64.2551 7.4248ZM61.4592 10.624V3.51465H64.5012C65.8342 3.51465 66.6477 4.20508 66.6477 5.33301C66.6477 6.05762 66.135 6.72754 65.4787 6.86426V6.91895C66.3742 7.04199 66.9621 7.69141 66.9621 8.58008C66.9621 9.83789 66.0324 10.624 64.5217 10.624H61.4592ZM70.674 9.73535C71.7951 9.73535 72.6564 8.94922 72.6564 7.92383V7.34277L70.7561 7.45898C69.799 7.52051 69.2521 7.94434 69.2521 8.61426C69.2521 9.29102 69.8195 9.73535 70.674 9.73535ZM70.4074 10.7471C68.9924 10.7471 68.0422 9.89258 68.0422 8.61426C68.0422 7.39746 68.9787 6.63184 70.6193 6.53613L72.6564 6.41992V5.8252C72.6564 4.95703 72.0822 4.4375 71.0978 4.4375C70.1818 4.4375 69.6076 4.86816 69.4572 5.56543H68.3088C68.3908 4.33496 69.4436 3.3916 71.1252 3.3916C72.7932 3.3916 73.8459 4.29395 73.8459 5.70898V10.624H72.718V9.40039H72.6906C72.2668 10.2139 71.3644 10.7471 70.4074 10.7471ZM76.6623 10.624H75.4865V3.51465H76.6623V8.80566H76.717L80.2717 3.51465H81.4475V10.624H80.2717V5.33301H80.217L76.6623 10.624ZM76.3957 0.438477H77.2707C77.2707 1.23145 77.7834 1.85352 78.5969 1.85352C79.4103 1.85352 79.923 1.23145 79.923 0.438477H80.798C80.798 1.69629 79.9025 2.55762 78.5969 2.55762C77.2912 2.55762 76.3957 1.69629 76.3957 0.438477ZM83.8674 12.5859H82.8762L83.5393 9.10645H84.8039L83.8674 12.5859ZM92.3166 3.3916C94.1281 3.3916 95.3586 4.84082 95.3586 7.06934C95.3586 9.29785 94.135 10.7471 92.3439 10.7471C91.3254 10.7471 90.5051 10.248 90.0812 9.46875H90.0539V12.9961H88.8644V3.51465H89.9924V4.71777H90.0197C90.4572 3.91797 91.2844 3.3916 92.3166 3.3916ZM92.0842 9.70117C93.3488 9.70117 94.1418 8.68262 94.1418 7.06934C94.1418 5.46289 93.3488 4.4375 92.0842 4.4375C90.8674 4.4375 90.0471 5.49023 90.0471 7.06934C90.0471 8.65527 90.8674 9.70117 92.0842 9.70117ZM99.0295 9.73535C100.151 9.73535 101.012 8.94922 101.012 7.92383V7.34277L99.1115 7.45898C98.1545 7.52051 97.6076 7.94434 97.6076 8.61426C97.6076 9.29102 98.175 9.73535 99.0295 9.73535ZM98.7629 10.7471C97.3478 10.7471 96.3977 9.89258 96.3977 8.61426C96.3977 7.39746 97.3342 6.63184 98.9748 6.53613L101.012 6.41992V5.8252C101.012 4.95703 100.438 4.4375 99.4533 4.4375C98.5373 4.4375 97.9631 4.86816 97.8127 5.56543H96.6643C96.7463 4.33496 97.799 3.3916 99.4807 3.3916C101.149 3.3916 102.201 4.29395 102.201 5.70898V10.624H101.073V9.40039H101.046C100.622 10.2139 99.7199 10.7471 98.7629 10.7471ZM109.728 5.70215H108.552C108.347 5.01855 107.766 4.4375 106.761 4.4375C105.524 4.4375 104.71 5.4834 104.71 7.06934C104.71 8.69629 105.537 9.70117 106.775 9.70117C107.718 9.70117 108.34 9.23633 108.566 8.4502H109.741C109.509 9.79688 108.367 10.7471 106.768 10.7471C104.792 10.7471 103.5 9.33203 103.5 7.06934C103.5 4.85449 104.785 3.3916 106.754 3.3916C108.47 3.3916 109.516 4.49219 109.728 5.70215ZM116.864 5.70215H115.689C115.484 5.01855 114.903 4.4375 113.898 4.4375C112.66 4.4375 111.847 5.4834 111.847 7.06934C111.847 8.69629 112.674 9.70117 113.911 9.70117C114.855 9.70117 115.477 9.23633 115.702 8.4502H116.878C116.646 9.79688 115.504 10.7471 113.904 10.7471C111.929 10.7471 110.637 9.33203 110.637 7.06934C110.637 4.85449 111.922 3.3916 113.891 3.3916C115.607 3.3916 116.653 4.49219 116.864 5.70215ZM120.529 6.87793L123.946 10.624H122.415L119.346 7.20605H119.291V10.624H118.115V3.51465H119.291V6.65918H119.346L122.381 3.51465H123.851L120.529 6.87793ZM127.084 9.73535C128.205 9.73535 129.067 8.94922 129.067 7.92383V7.34277L127.166 7.45898C126.209 7.52051 125.662 7.94434 125.662 8.61426C125.662 9.29102 126.23 9.73535 127.084 9.73535ZM126.818 10.7471C125.403 10.7471 124.452 9.89258 124.452 8.61426C124.452 7.39746 125.389 6.63184 127.029 6.53613L129.067 6.41992V5.8252C129.067 4.95703 128.492 4.4375 127.508 4.4375C126.592 4.4375 126.018 4.86816 125.867 5.56543H124.719C124.801 4.33496 125.854 3.3916 127.535 3.3916C129.203 3.3916 130.256 4.29395 130.256 5.70898V10.624H129.128V9.40039H129.101C128.677 10.2139 127.775 10.7471 126.818 10.7471ZM134.269 10.7471C132.71 10.7471 131.582 9.98145 131.459 8.77832H132.662C132.799 9.40039 133.387 9.7627 134.269 9.7627C135.301 9.7627 135.875 9.27051 135.875 8.58008C135.875 7.78027 135.342 7.41797 134.269 7.41797H133.202V6.44727H134.269C135.171 6.44727 135.636 6.10547 135.636 5.4082C135.636 4.81348 135.212 4.38281 134.296 4.38281C133.455 4.38281 132.867 4.74512 132.772 5.3125H131.616C131.767 4.13672 132.792 3.3916 134.296 3.3916C135.916 3.3916 136.798 4.1709 136.798 5.3125C136.798 6.03711 136.333 6.67969 135.622 6.84375V6.89844C136.559 7.10352 137.044 7.70508 137.044 8.52539C137.044 9.85156 135.937 10.7471 134.269 10.7471ZM144.488 10.624V3.51465H145.664V10.624H144.488ZM140.906 6.76172H139.58V9.64648H140.906C141.829 9.64648 142.424 9.07227 142.424 8.2041C142.424 7.3291 141.822 6.76172 140.906 6.76172ZM138.404 10.624V3.51465H139.58V5.78418H140.927C142.554 5.78418 143.6 6.7207 143.6 8.2041C143.6 9.6875 142.554 10.624 140.927 10.624H138.404ZM150.21 4.47852H148.508V6.46777H150.032C150.928 6.46777 151.359 6.13965 151.359 5.45605C151.359 4.82715 150.955 4.47852 150.21 4.47852ZM150.128 7.4248H148.508V9.66016H150.34C151.201 9.66016 151.666 9.27051 151.666 8.55273C151.666 7.79395 151.167 7.4248 150.128 7.4248ZM147.332 10.624V3.51465H150.374C151.707 3.51465 152.521 4.20508 152.521 5.33301C152.521 6.05762 152.008 6.72754 151.352 6.86426V6.91895C152.247 7.04199 152.835 7.69141 152.835 8.58008C152.835 9.83789 151.905 10.624 150.395 10.624H147.332ZM156.547 9.73535C157.668 9.73535 158.529 8.94922 158.529 7.92383V7.34277L156.629 7.45898C155.672 7.52051 155.125 7.94434 155.125 8.61426C155.125 9.29102 155.693 9.73535 156.547 9.73535ZM156.28 10.7471C154.865 10.7471 153.915 9.89258 153.915 8.61426C153.915 7.39746 154.852 6.63184 156.492 6.53613L158.529 6.41992V5.8252C158.529 4.95703 157.955 4.4375 156.971 4.4375C156.055 4.4375 155.481 4.86816 155.33 5.56543H154.182C154.264 4.33496 155.317 3.3916 156.998 3.3916C158.666 3.3916 159.719 4.29395 159.719 5.70898V10.624H158.591V9.40039H158.564C158.14 10.2139 157.237 10.7471 156.28 10.7471ZM163.916 7.11719H165.277V4.49219H163.916C162.993 4.49219 162.405 4.99805 162.405 5.85254C162.405 6.59082 163 7.11719 163.916 7.11719ZM165.277 10.624V8.09473H164.019L162.214 10.624H160.854L162.836 7.87598C161.831 7.58887 161.223 6.85059 161.223 5.87305C161.223 4.41016 162.276 3.51465 163.909 3.51465H166.452V10.624H165.277ZM13.0061 29.7471C11.0373 29.7471 9.71113 28.332 9.71113 26.0693C9.71113 23.7998 11.0373 22.3916 13.0061 22.3916C14.968 22.3916 16.2941 23.7998 16.2941 26.0693C16.2941 28.332 14.968 29.7471 13.0061 29.7471ZM13.0061 28.7012C14.2639 28.7012 15.0842 27.7441 15.0842 26.0693C15.0842 24.3945 14.2639 23.4375 13.0061 23.4375C11.7482 23.4375 10.9211 24.3945 10.9211 26.0693C10.9211 27.7441 11.7482 28.7012 13.0061 28.7012ZM23.5334 29.7471C21.3527 29.7471 20.2043 28.2842 20.2043 25.4609C20.2043 21.5371 21.2434 19.9033 24.0051 19.8008L24.5314 19.7803C25.215 19.7461 25.9807 19.6094 26.384 19.3975V20.4365C26.1584 20.6416 25.4064 20.8193 24.5861 20.8535L24.0598 20.874C22.0842 20.9492 21.4963 21.8174 21.2092 23.9434H21.2639C21.7287 23.1025 22.6174 22.665 23.7111 22.665C25.632 22.665 26.8557 24.0186 26.8557 26.1377C26.8557 28.373 25.591 29.7471 23.5334 29.7471ZM23.5334 28.6943C24.8664 28.6943 25.6389 27.7715 25.6389 26.1377C25.6389 24.5859 24.8664 23.7041 23.5334 23.7041C22.1936 23.7041 21.4211 24.5859 21.4211 26.1377C21.4211 27.7715 22.1936 28.6943 23.5334 28.6943ZM30.5334 28.7354C31.6545 28.7354 32.5158 27.9492 32.5158 26.9238V26.3428L30.6154 26.459C29.6584 26.5205 29.1115 26.9443 29.1115 27.6143C29.1115 28.291 29.6789 28.7354 30.5334 28.7354ZM30.2668 29.7471C28.8518 29.7471 27.9016 28.8926 27.9016 27.6143C27.9016 26.3975 28.8381 25.6318 30.4787 25.5361L32.5158 25.4199V24.8252C32.5158 23.957 31.9416 23.4375 30.9572 23.4375C30.0412 23.4375 29.467 23.8682 29.3166 24.5654H28.1682C28.2502 23.335 29.3029 22.3916 30.9846 22.3916C32.6525 22.3916 33.7053 23.2939 33.7053 24.709V29.624H32.5773V28.4004H32.55C32.1262 29.2139 31.2238 29.7471 30.2668 29.7471ZM40.0285 29.624V26.4248H36.5217V29.624H35.3459V22.5146H36.5217V25.4473H40.0285V22.5146H41.2043V29.624H40.0285ZM45.2922 25.8779L48.7102 29.624H47.1789L44.1096 26.2061H44.0549V29.624H42.8791V22.5146H44.0549V25.6592H44.1096L47.1447 22.5146H48.6144L45.2922 25.8779ZM52.5178 29.7471C50.549 29.7471 49.2228 28.332 49.2228 26.0693C49.2228 23.7998 50.549 22.3916 52.5178 22.3916C54.4797 22.3916 55.8059 23.7998 55.8059 26.0693C55.8059 28.332 54.4797 29.7471 52.5178 29.7471ZM52.5178 28.7012C53.7756 28.7012 54.5959 27.7441 54.5959 26.0693C54.5959 24.3945 53.7756 23.4375 52.5178 23.4375C51.26 23.4375 50.4328 24.3945 50.4328 26.0693C50.4328 27.7441 51.26 28.7012 52.5178 28.7012ZM60.0031 23.4785H58.301V25.4678H59.8254C60.7209 25.4678 61.1516 25.1396 61.1516 24.4561C61.1516 23.8271 60.7482 23.4785 60.0031 23.4785ZM59.9211 26.4248H58.301V28.6602H60.133C60.9943 28.6602 61.4592 28.2705 61.4592 27.5527C61.4592 26.7939 60.9602 26.4248 59.9211 26.4248ZM57.1252 29.624V22.5146H60.1672C61.5002 22.5146 62.3137 23.2051 62.3137 24.333C62.3137 25.0576 61.801 25.7275 61.1447 25.8643V25.9189C62.0402 26.042 62.6281 26.6914 62.6281 27.5801C62.6281 28.8379 61.6984 29.624 60.1877 29.624H57.1252ZM69.8742 24.7021H68.6984C68.4934 24.0186 67.9123 23.4375 66.9074 23.4375C65.6701 23.4375 64.8566 24.4834 64.8566 26.0693C64.8566 27.6963 65.6838 28.7012 66.9211 28.7012C67.8644 28.7012 68.4865 28.2363 68.7121 27.4502H69.8879C69.6555 28.7969 68.5139 29.7471 66.9143 29.7471C64.9387 29.7471 63.6467 28.332 63.6467 26.0693C63.6467 23.8545 64.9318 22.3916 66.9006 22.3916C68.6164 22.3916 69.6623 23.4922 69.8742 24.7021ZM73.5383 25.8779L76.9562 29.624H75.425L72.3557 26.2061H72.301V29.624H71.1252V22.5146H72.301V25.6592H72.3557L75.3908 22.5146H76.8605L73.5383 25.8779ZM79.1232 29.624H77.9475V22.5146H79.1232V27.8057H79.1779L82.7326 22.5146H83.9084V29.624H82.7326V24.333H82.6779L79.1232 29.624ZM88.0988 26.917H88.0715L86.3557 29.624H85.0363L87.4562 26.0693L85.0773 22.5146H86.4035L88.1125 25.1807H88.1398L89.8283 22.5146H91.1545L88.7551 26.0215L91.1203 29.624H89.801L88.0988 26.917ZM99.7609 29.624V23.4922H96.3225V29.624H95.1467V22.5146H100.944V29.624H99.7609ZM106.071 22.3916C107.882 22.3916 109.112 23.8408 109.112 26.0693C109.112 28.2979 107.889 29.7471 106.098 29.7471C105.079 29.7471 104.259 29.248 103.835 28.4688H103.808V31.9961H102.618V22.5146H103.746V23.7178H103.774C104.211 22.918 105.038 22.3916 106.071 22.3916ZM105.838 28.7012C107.103 28.7012 107.896 27.6826 107.896 26.0693C107.896 24.4629 107.103 23.4375 105.838 23.4375C104.621 23.4375 103.801 24.4902 103.801 26.0693C103.801 27.6553 104.621 28.7012 105.838 28.7012ZM113.385 29.7471C111.416 29.7471 110.09 28.332 110.09 26.0693C110.09 23.7998 111.416 22.3916 113.385 22.3916C115.347 22.3916 116.673 23.7998 116.673 26.0693C116.673 28.332 115.347 29.7471 113.385 29.7471ZM113.385 28.7012C114.643 28.7012 115.463 27.7441 115.463 26.0693C115.463 24.3945 114.643 23.4375 113.385 23.4375C112.127 23.4375 111.3 24.3945 111.3 26.0693C111.3 27.7441 112.127 28.7012 113.385 28.7012ZM122.572 28.6465V23.4922H119.906L119.688 26.4863C119.626 27.3682 119.442 28.1406 119.107 28.5918V28.6465H122.572ZM118.259 31.5039H117.152V28.6465H117.746C118.266 28.3047 118.519 27.416 118.587 26.459L118.861 22.5146H123.755V28.6465H124.883V31.5039H123.776V29.624H118.259V31.5039ZM126.407 32.2832C126.264 32.2832 126.025 32.2695 125.895 32.2422V31.2441C126.025 31.2715 126.209 31.2783 126.36 31.2783C127.023 31.2783 127.392 30.957 127.665 30.1299L127.829 29.6309L125.204 22.5146H126.476L128.445 28.4346H128.465L130.434 22.5146H131.685L128.889 30.123C128.28 31.7842 127.693 32.2832 126.407 32.2832ZM135.157 25.8779L138.575 29.624H137.044L133.975 26.2061H133.92V29.624H132.744V22.5146H133.92V25.6592H133.975L137.01 22.5146H138.48L135.157 25.8779ZM144.632 22.5146V23.4922H142.335V29.624H141.159V23.4922H138.862V22.5146H144.632ZM147.811 28.7354C148.932 28.7354 149.793 27.9492 149.793 26.9238V26.3428L147.893 26.459C146.936 26.5205 146.389 26.9443 146.389 27.6143C146.389 28.291 146.956 28.7354 147.811 28.7354ZM147.544 29.7471C146.129 29.7471 145.179 28.8926 145.179 27.6143C145.179 26.3975 146.115 25.6318 147.756 25.5361L149.793 25.4199V24.8252C149.793 23.957 149.219 23.4375 148.235 23.4375C147.319 23.4375 146.744 23.8682 146.594 24.5654H145.445C145.528 23.335 146.58 22.3916 148.262 22.3916C149.93 22.3916 150.983 23.2939 150.983 24.709V29.624H149.855V28.4004H149.827C149.404 29.2139 148.501 29.7471 147.544 29.7471ZM155.146 26.917H155.118L153.403 29.624H152.083L154.503 26.0693L152.124 22.5146H153.45L155.159 25.1807H155.187L156.875 22.5146H158.201L155.802 26.0215L158.167 29.624H156.848L155.146 26.917Z" fill="#A3A3A3"/>
</svg>
