<svg width="78" height="31" viewBox="0 0 78 31" fill="none" xmlns="http://www.w3.org/2000/svg">
<g clip-path="url(#clip0_1_117)">
<rect x="0.00300598" y="6.86523" width="16.7196" height="17.1596" rx="6.37355" fill="#E5E5E5"/>
<rect x="0.000793457" y="6.86518" width="17.1595" height="17.1595" rx="5.14787" fill="url(#paint0_linear_1_117)"/>
<mask id="mask0_1_117" style="mask-type:alpha" maskUnits="userSpaceOnUse" x="-4" y="7" width="22" height="21">
<rect x="-1.19221" y="6.17872" width="19.501" height="19.501" rx="5.85031" transform="rotate(8.12563 -1.19221 6.17872)" fill="url(#paint1_linear_1_117)"/>
</mask>
<g mask="url(#mask0_1_117)">
<path d="M10.5804 12.5957C9.56119 15.5638 7.40464 18.0053 4.58521 19.3834C1.76577 20.7614 -1.4856 20.9629 -4.45365 19.9437" stroke="white" stroke-width="4.63308"/>
<path fill-rule="evenodd" clip-rule="evenodd" d="M-0.409658 18.2753C1.89729 17.3787 3.75354 15.6023 4.75076 13.337L9.32741 15.3517C7.79585 18.8308 4.94496 21.559 1.4019 22.9361C-0.485819 23.6699 -2.6915 23.8889 -4.74742 23.7823C-6.81376 23.6752 -8.93678 23.2285 -10.6998 22.4524L-8.68513 17.8758C-7.576 18.364 -6.06722 18.7067 -4.48855 18.7885C-2.89947 18.8709 -1.44694 18.6785 -0.409658 18.2753Z" fill="url(#paint2_linear_1_117)"/>
</g>
</g>
<path d="M26.5316 23V7.81853H32.2247C33.391 7.81853 34.3695 8.02115 35.1602 8.42638C35.9558 8.83161 36.5563 9.39993 36.9615 10.1313C37.3717 10.8578 37.5768 11.7053 37.5768 12.6739C37.5768 13.6475 37.3692 14.4925 36.9541 15.2091C36.5439 15.9207 35.9385 16.4718 35.1379 16.8622C34.3374 17.2476 33.3539 17.4404 32.1876 17.4404H28.1328V15.1572H31.817C32.499 15.1572 33.0574 15.0633 33.4923 14.8755C33.9272 14.6828 34.2484 14.4036 34.456 14.0379C34.6685 13.6672 34.7747 13.2126 34.7747 12.6739C34.7747 12.1353 34.6685 11.6757 34.456 11.2951C34.2435 10.9097 33.9198 10.6181 33.4849 10.4204C33.05 10.2178 32.4891 10.1165 31.8022 10.1165H29.2818V23H26.5316ZM34.3744 16.1209L38.1327 23H35.0638L31.3722 16.1209H34.3744ZM44.8673 23.2224C43.7257 23.2224 42.7398 22.9852 41.9096 22.5108C41.0843 22.0314 40.4492 21.3544 40.0045 20.4796C39.5597 19.6 39.3373 18.5647 39.3373 17.3737C39.3373 16.2024 39.5597 15.1745 40.0045 14.2899C40.4542 13.4004 41.0818 12.7085 41.8873 12.2143C42.6928 11.7152 43.6392 11.4656 44.7264 11.4656C45.4282 11.4656 46.0904 11.5793 46.7131 11.8066C47.3407 12.029 47.8942 12.3749 48.3735 12.8444C48.8578 13.3139 49.2384 13.9119 49.5151 14.6383C49.7919 15.3598 49.9302 16.2197 49.9302 17.218V18.0408H40.5975V16.2321H47.358C47.353 15.7181 47.2419 15.261 47.0244 14.8607C46.807 14.4555 46.503 14.1367 46.1126 13.9045C45.7272 13.6722 45.2775 13.5561 44.7635 13.5561C44.2149 13.5561 43.7331 13.6895 43.318 13.9563C42.9029 14.2183 42.5792 14.5642 42.3469 14.9941C42.1196 15.4191 42.0035 15.8862 41.9985 16.3952V17.9741C41.9985 18.6363 42.1196 19.2046 42.3617 19.6791C42.6039 20.1485 42.9424 20.5093 43.3773 20.7613C43.8122 21.0084 44.3212 21.132 44.9043 21.132C45.2948 21.132 45.6481 21.0776 45.9644 20.9689C46.2807 20.8552 46.5549 20.6897 46.7872 20.4722C47.0195 20.2548 47.1949 19.9854 47.3135 19.6642L49.819 19.9459C49.6609 20.6081 49.3595 21.1863 48.9147 21.6805C48.4749 22.1698 47.9115 22.5503 47.2246 22.8221C46.5376 23.089 45.7519 23.2224 44.8673 23.2224ZM57.9676 11.6139V13.6895H51.2368V11.6139H57.9676ZM52.9195 23V10.539C52.9195 9.77304 53.0776 9.13554 53.3939 8.62653C53.7151 8.11751 54.1451 7.73699 54.6837 7.48495C55.2224 7.23291 55.8203 7.1069 56.4776 7.1069C56.9422 7.1069 57.3548 7.14396 57.7156 7.21809C58.0763 7.29222 58.3432 7.35893 58.5161 7.41824L57.9824 9.49383C57.8688 9.45923 57.7254 9.42464 57.5525 9.39005C57.3795 9.35051 57.1868 9.33075 56.9743 9.33075C56.4751 9.33075 56.1218 9.45182 55.9142 9.69397C55.7116 9.93118 55.6103 10.2722 55.6103 10.7169V23H52.9195ZM62.7526 7.81853V23H60.0691V7.81853H62.7526ZM65.512 23V11.6139H68.1954V23H65.512ZM66.8611 9.9979C66.4361 9.9979 66.0704 9.85706 65.764 9.57537C65.4576 9.28874 65.3044 8.94528 65.3044 8.54499C65.3044 8.13975 65.4576 7.79629 65.764 7.5146C66.0704 7.22797 66.4361 7.08466 66.8611 7.08466C67.2911 7.08466 67.6568 7.22797 67.9582 7.5146C68.2646 7.79629 68.4178 8.13975 68.4178 8.54499C68.4178 8.94528 68.2646 9.28874 67.9582 9.57537C67.6568 9.85706 67.2911 9.9979 66.8611 9.9979ZM72.6079 23.1631C72.1582 23.1631 71.7728 23.0049 71.4515 22.6887C71.1303 22.3724 70.9722 21.9869 70.9771 21.5323C70.9722 21.0875 71.1303 20.707 71.4515 20.3907C71.7728 20.0744 72.1582 19.9163 72.6079 19.9163C73.0428 19.9163 73.4209 20.0744 73.7421 20.3907C74.0683 20.707 74.2338 21.0875 74.2388 21.5323C74.2338 21.8337 74.1547 22.108 74.0015 22.3551C73.8533 22.6022 73.6556 22.7999 73.4085 22.9481C73.1664 23.0914 72.8995 23.1631 72.6079 23.1631Z" fill="#212121"/>
<defs>
<linearGradient id="paint0_linear_1_117" x1="0.000793295" y1="8.20796" x2="15.5382" y2="23.5974" gradientUnits="userSpaceOnUse">
<stop offset="1" stop-color="#1C8EFE"/>
</linearGradient>
<linearGradient id="paint1_linear_1_117" x1="-1.19221" y1="7.70472" x2="16.4654" y2="25.1941" gradientUnits="userSpaceOnUse">
<stop stop-color="#36B4FE"/>
<stop offset="1" stop-color="#1C8EFE"/>
</linearGradient>
<linearGradient id="paint2_linear_1_117" x1="-3.79077" y1="9.57694" x2="-8.55815" y2="20.4066" gradientUnits="userSpaceOnUse">
<stop stop-color="white"/>
<stop offset="1" stop-color="white" stop-opacity="0"/>
</linearGradient>
<clipPath id="clip0_1_117">
<rect x="0.00300598" y="6.86523" width="16.7196" height="17.1596" rx="6.37355" fill="white"/>
</clipPath>
</defs>
</svg>
