<svg width="78" height="31" viewBox="0 0 78 31" fill="none" xmlns="http://www.w3.org/2000/svg">
<g clip-path="url(#clip0_1_117)">
<rect y="6.86523" width="16.7196" height="17.1596" rx="6.37355" fill="#E5E5E5"/>
<rect x="-0.00221252" y="6.86519" width="17.1595" height="17.1595" rx="5.14787" fill="url(#paint0_linear_1_117)"/>
<mask id="mask0_1_117" style="mask-type:alpha" maskUnits="userSpaceOnUse" x="-4" y="7" width="22" height="21">
<rect x="-1.19521" y="6.17872" width="19.501" height="19.501" rx="5.85031" transform="rotate(8.12563 -1.19521 6.17872)" fill="url(#paint1_linear_1_117)"/>
</mask>
<g mask="url(#mask0_1_117)">
<path d="M10.5774 12.5957C9.55818 15.5638 7.40164 18.0053 4.5822 19.3834C1.76276 20.7614 -1.48861 20.9629 -4.45666 19.9437" stroke="white" stroke-width="4.63308"/>
<path fill-rule="evenodd" clip-rule="evenodd" d="M-0.412664 18.2753C1.89428 17.3787 3.75054 15.6023 4.74776 13.337L9.3244 15.3517C7.79285 18.8308 4.94195 21.559 1.39889 22.9361C-0.488824 23.6699 -2.69451 23.8889 -4.75043 23.7823C-6.81677 23.6752 -8.93979 23.2285 -10.7029 22.4524L-8.68814 17.8758C-7.57901 18.364 -6.07023 18.7067 -4.49156 18.7885C-2.90248 18.8709 -1.44995 18.6785 -0.412664 18.2753Z" fill="url(#paint2_linear_1_117)"/>
</g>
</g>
<path d="M26.5286 23V7.81853H32.2217C33.388 7.81853 34.3665 8.02115 35.1572 8.42638C35.9528 8.83161 36.5533 9.39993 36.9585 10.1313C37.3687 10.8578 37.5738 11.7053 37.5738 12.6739C37.5738 13.6475 37.3662 14.4925 36.9511 15.2091C36.5409 15.9207 35.9355 16.4718 35.1349 16.8622C34.3343 17.2476 33.3509 17.4404 32.1846 17.4404H28.1298V15.1572H31.814C32.496 15.1572 33.0544 15.0633 33.4893 14.8755C33.9242 14.6828 34.2454 14.4036 34.453 14.0379C34.6655 13.6672 34.7717 13.2126 34.7717 12.6739C34.7717 12.1353 34.6655 11.6757 34.453 11.2951C34.2405 10.9097 33.9168 10.6181 33.4819 10.4204C33.047 10.2178 32.4861 10.1165 31.7992 10.1165H29.2788V23H26.5286ZM34.3714 16.1209L38.1297 23H35.0608L31.3692 16.1209H34.3714ZM44.8643 23.2224C43.7227 23.2224 42.7368 22.9852 41.9066 22.5108C41.0813 22.0314 40.4462 21.3544 40.0015 20.4796C39.5567 19.6 39.3343 18.5647 39.3343 17.3737C39.3343 16.2024 39.5567 15.1745 40.0015 14.2899C40.4512 13.4004 41.0788 12.7085 41.8843 12.2143C42.6898 11.7152 43.6362 11.4656 44.7234 11.4656C45.4252 11.4656 46.0874 11.5793 46.7101 11.8066C47.3377 12.029 47.8912 12.3749 48.3705 12.8444C48.8548 13.3139 49.2354 13.9119 49.5121 14.6383C49.7889 15.3598 49.9272 16.2197 49.9272 17.218V18.0408H40.5945V16.2321H47.355C47.35 15.7181 47.2388 15.261 47.0214 14.8607C46.804 14.4555 46.5 14.1367 46.1096 13.9045C45.7242 13.6722 45.2744 13.5561 44.7605 13.5561C44.2119 13.5561 43.7301 13.6895 43.315 13.9563C42.8999 14.2183 42.5762 14.5642 42.3439 14.9941C42.1166 15.4191 42.0004 15.8862 41.9955 16.3952V17.9741C41.9955 18.6363 42.1166 19.2046 42.3587 19.6791C42.6009 20.1485 42.9394 20.5093 43.3743 20.7613C43.8092 21.0084 44.3182 21.132 44.9013 21.132C45.2917 21.132 45.6451 21.0776 45.9614 20.9689C46.2777 20.8552 46.5519 20.6897 46.7842 20.4722C47.0165 20.2548 47.1919 19.9854 47.3105 19.6642L49.816 19.9459C49.6579 20.6081 49.3564 21.1863 48.9117 21.6805C48.4718 22.1698 47.9085 22.5503 47.2216 22.8221C46.5346 23.089 45.7489 23.2224 44.8643 23.2224ZM57.9646 11.6139V13.6895H51.2337V11.6139H57.9646ZM52.9165 23V10.539C52.9165 9.77304 53.0746 9.13554 53.3909 8.62653C53.7121 8.11751 54.142 7.73699 54.6807 7.48495C55.2194 7.23291 55.8173 7.1069 56.4746 7.1069C56.9392 7.1069 57.3518 7.14396 57.7126 7.21809C58.0733 7.29222 58.3402 7.35893 58.5131 7.41824L57.9794 9.49383C57.8658 9.45923 57.7224 9.42464 57.5495 9.39005C57.3765 9.35051 57.1838 9.33075 56.9713 9.33075C56.4721 9.33075 56.1188 9.45182 55.9112 9.69397C55.7086 9.93118 55.6073 10.2722 55.6073 10.7169V23H52.9165ZM62.7496 7.81853V23H60.0661V7.81853H62.7496ZM65.509 23V11.6139H68.1924V23H65.509ZM66.8581 9.9979C66.4331 9.9979 66.0674 9.85706 65.761 9.57537C65.4546 9.28874 65.3014 8.94528 65.3014 8.54499C65.3014 8.13975 65.4546 7.79629 65.761 7.5146C66.0674 7.22797 66.4331 7.08466 66.8581 7.08466C67.2881 7.08466 67.6538 7.22797 67.9552 7.5146C68.2616 7.79629 68.4148 8.13975 68.4148 8.54499C68.4148 8.94528 68.2616 9.28874 67.9552 9.57537C67.6538 9.85706 67.2881 9.9979 66.8581 9.9979ZM72.6049 23.1631C72.1552 23.1631 71.7697 23.0049 71.4485 22.6887C71.1273 22.3724 70.9692 21.9869 70.9741 21.5323C70.9692 21.0875 71.1273 20.707 71.4485 20.3907C71.7697 20.0744 72.1552 19.9163 72.6049 19.9163C73.0398 19.9163 73.4179 20.0744 73.7391 20.3907C74.0653 20.707 74.2308 21.0875 74.2357 21.5323C74.2308 21.8337 74.1517 22.108 73.9985 22.3551C73.8503 22.6022 73.6526 22.7999 73.4055 22.9481C73.1634 23.0914 72.8965 23.1631 72.6049 23.1631Z" fill="#212121"/>
<defs>
<linearGradient id="paint0_linear_1_117" x1="-0.00221269" y1="8.20796" x2="15.5352" y2="23.5974" gradientUnits="userSpaceOnUse">
<stop offset="1" stop-color="#1C8EFE"/>
</linearGradient>
<linearGradient id="paint1_linear_1_117" x1="-1.19521" y1="7.70472" x2="16.4624" y2="25.1941" gradientUnits="userSpaceOnUse">
<stop stop-color="#36B4FE"/>
<stop offset="1" stop-color="#1C8EFE"/>
</linearGradient>
<linearGradient id="paint2_linear_1_117" x1="-3.79378" y1="9.57694" x2="-8.56115" y2="20.4066" gradientUnits="userSpaceOnUse">
<stop stop-color="white"/>
<stop offset="1" stop-color="white" stop-opacity="0"/>
</linearGradient>
<clipPath id="clip0_1_117">
<rect y="6.86523" width="16.7196" height="17.1596" rx="6.37355" fill="white"/>
</clipPath>
</defs>
</svg>
