<svg width="68" height="28" viewBox="0 0 68 28" fill="none" xmlns="http://www.w3.org/2000/svg">
<g clip-path="url(#clip0_49_761)">
<rect x="-3.05176e-05" y="6.0425" width="14.5945" height="15.1038" rx="5.60996" fill="#E5E5E5"/>
<rect x="-0.383026" y="5.99999" width="15.1037" height="15.1037" rx="4.53112" fill="url(#paint0_linear_49_761)"/>
<mask id="mask0_49_761" style="mask-type:alpha" maskUnits="userSpaceOnUse" x="-5" y="6" width="19" height="19">
<rect x="-2.59212" y="5.43827" width="17.1647" height="17.1647" rx="5.14941" transform="rotate(8.12563 -2.59212 5.43827)" fill="url(#paint1_linear_49_761)"/>
</mask>
<g mask="url(#mask0_49_761)">
<path d="M7.77004 11.0866C6.87291 13.6991 4.97474 15.8481 2.49308 17.061C0.0114313 18.274 -2.85041 18.4514 -5.46286 17.5542" stroke="white" stroke-width="4.07801"/>
<path fill-rule="evenodd" clip-rule="evenodd" d="M-1.90332 16.0857C0.127235 15.2965 1.7611 13.7329 2.63885 11.739L6.66719 13.5124C5.31912 16.5746 2.80978 18.976 -0.308802 20.1881C-1.97036 20.8339 -3.91179 21.0267 -5.7214 20.9329C-7.54018 20.8386 -9.40885 20.4455 -10.9607 19.7623L-9.18735 15.734C-8.2111 16.1638 -6.88308 16.4654 -5.49354 16.5374C-4.09484 16.6099 -2.81634 16.4406 -1.90332 16.0857Z" fill="url(#paint2_linear_49_761)"/>
</g>
</g>
<path d="M23.1677 21V7.63736H28.1787C29.2052 7.63736 30.0665 7.8157 30.7625 8.17238C31.4628 8.52907 31.9913 9.0293 32.348 9.67307C32.709 10.3125 32.8895 11.0585 32.8895 11.9111C32.8895 12.768 32.7069 13.5118 32.3415 14.1425C31.9804 14.7689 31.4476 15.2539 30.7429 15.5975C30.0382 15.9368 29.1726 16.1065 28.1461 16.1065H24.577V14.0968H27.8198C28.4201 14.0968 28.9116 14.0142 29.2944 13.8489C29.6772 13.6793 29.9599 13.4335 30.1426 13.1116C30.3297 12.7854 30.4232 12.3852 30.4232 11.9111C30.4232 11.4369 30.3297 11.0324 30.1426 10.6975C29.9556 10.3582 29.6707 10.1015 29.2879 9.92753C28.9051 9.74919 28.4114 9.66002 27.8068 9.66002H25.5884V21H23.1677ZM30.0709 14.9451L33.3789 21H30.6777L27.4283 14.9451H30.0709ZM39.3066 21.1957C38.3018 21.1957 37.434 20.987 36.7032 20.5694C35.9768 20.1474 35.4179 19.5515 35.0264 18.7816C34.6349 18.0073 34.4392 17.096 34.4392 16.0477C34.4392 15.0168 34.6349 14.1121 35.0264 13.3334C35.4222 12.5505 35.9747 11.9415 36.6837 11.5065C37.3927 11.0672 38.2257 10.8475 39.1826 10.8475C39.8003 10.8475 40.3832 10.9476 40.9313 11.1477C41.4837 11.3434 41.9709 11.6479 42.3928 12.0611C42.8191 12.4744 43.154 13.0007 43.3976 13.6401C43.6412 14.2752 43.763 15.032 43.763 15.9107V16.635H35.5484V15.0429H41.4989C41.4946 14.5905 41.3967 14.1882 41.2053 13.8358C41.0139 13.4792 40.7464 13.1986 40.4028 12.9942C40.0635 12.7897 39.6676 12.6875 39.2153 12.6875C38.7324 12.6875 38.3083 12.8049 37.9429 13.0398C37.5776 13.2704 37.2926 13.5749 37.0882 13.9533C36.8881 14.3274 36.7859 14.7384 36.7815 15.1865V16.5762C36.7815 17.1591 36.8881 17.6593 37.1013 18.0769C37.3144 18.4902 37.6124 18.8077 37.9951 19.0295C38.3779 19.247 38.826 19.3558 39.3392 19.3558C39.6829 19.3558 39.9939 19.3079 40.2723 19.2122C40.5507 19.1122 40.7921 18.9665 40.9965 18.7751C41.201 18.5837 41.3554 18.3466 41.4598 18.0639L43.6651 18.3118C43.5259 18.8947 43.2606 19.4036 42.8691 19.8386C42.482 20.2692 41.9861 20.6042 41.3815 20.8434C40.7769 21.0783 40.0852 21.1957 39.3066 21.1957ZM50.8374 10.978V12.8049H44.913V10.978H50.8374ZM46.3941 21V10.0319C46.3941 9.35771 46.5333 8.79658 46.8117 8.34855C47.0944 7.90052 47.4729 7.56558 47.947 7.34374C48.4211 7.1219 48.9474 7.01098 49.526 7.01098C49.9349 7.01098 50.2981 7.0436 50.6156 7.10885C50.9331 7.1741 51.168 7.23282 51.3203 7.28502L50.8505 9.11194C50.7504 9.08149 50.6243 9.05105 50.4721 9.0206C50.3198 8.9858 50.1502 8.9684 49.9631 8.9684C49.5238 8.9684 49.2128 9.07497 49.0301 9.28811C48.8517 9.4969 48.7626 9.79704 48.7626 10.1885V21H46.3941ZM55.0492 7.63736V21H52.6872V7.63736H55.0492ZM57.478 21V10.978H59.8399V21H57.478ZM58.6655 9.55563C58.2914 9.55563 57.9695 9.43166 57.6998 9.18372C57.4301 8.93143 57.2953 8.62911 57.2953 8.27678C57.2953 7.92009 57.4301 7.61778 57.6998 7.36984C57.9695 7.11755 58.2914 6.99141 58.6655 6.99141C59.0439 6.99141 59.3658 7.11755 59.6311 7.36984C59.9008 7.61778 60.0357 7.92009 60.0357 8.27678C60.0357 8.62911 59.9008 8.93143 59.6311 9.18372C59.3658 9.43166 59.0439 9.55563 58.6655 9.55563ZM63.7238 21.1435C63.3279 21.1435 62.9887 21.0043 62.7059 20.726C62.4232 20.4476 62.284 20.1083 62.2883 19.7081C62.284 19.3166 62.4232 18.9817 62.7059 18.7033C62.9887 18.4249 63.3279 18.2857 63.7238 18.2857C64.1066 18.2857 64.4393 18.4249 64.7221 18.7033C65.0092 18.9817 65.1549 19.3166 65.1592 19.7081C65.1549 19.9734 65.0853 20.2149 64.9504 20.4323C64.8199 20.6498 64.6459 20.8238 64.4284 20.9543C64.2153 21.0805 63.9804 21.1435 63.7238 21.1435Z" fill="#212121"/>
<defs>
<linearGradient id="paint0_linear_49_761" x1="-0.383026" y1="7.18189" x2="13.293" y2="20.7276" gradientUnits="userSpaceOnUse">
<stop offset="1" stop-color="#249AFF"/>
</linearGradient>
<linearGradient id="paint1_linear_49_761" x1="-2.59212" y1="6.78145" x2="12.95" y2="22.1755" gradientUnits="userSpaceOnUse">
<stop stop-color="#36B4FE"/>
<stop offset="1" stop-color="#1C8EFE"/>
</linearGradient>
<linearGradient id="paint2_linear_49_761" x1="-4.87936" y1="8.42942" x2="-9.07558" y2="17.9616" gradientUnits="userSpaceOnUse">
<stop stop-color="white"/>
<stop offset="1" stop-color="white" stop-opacity="0"/>
</linearGradient>
<clipPath id="clip0_49_761">
<rect x="-3.05176e-05" y="6.0425" width="14.5945" height="15.1038" rx="5.60996" fill="white"/>
</clipPath>
</defs>
</svg>
