<svg width="13" height="13" viewBox="0 0 13 13" fill="none" xmlns="http://www.w3.org/2000/svg">
<path d="M6.5 1.08337C3.51542 1.08337 1.08334 3.51546 1.08334 6.50004C1.08334 9.48462 3.51542 11.9167 6.5 11.9167C9.48459 11.9167 11.9167 9.48462 11.9167 6.50004C11.9167 3.51546 9.48459 1.08337 6.5 1.08337ZM9.08917 5.25421L6.01792 8.32546C5.94209 8.40129 5.83917 8.44462 5.73084 8.44462C5.6225 8.44462 5.51959 8.40129 5.44375 8.32546L3.91084 6.79254C3.75375 6.63546 3.75375 6.37546 3.91084 6.21837C4.06792 6.06129 4.32792 6.06129 4.485 6.21837L5.73084 7.46421L8.515 4.68004C8.67209 4.52296 8.93209 4.52296 9.08917 4.68004C9.24625 4.83712 9.24625 5.09171 9.08917 5.25421Z" fill="#0FCF67"/>
</svg>
