<svg width="13" height="13" viewBox="0 0 13 13" fill="none" xmlns="http://www.w3.org/2000/svg">
<path d="M6.5 1.08337C3.51542 1.08337 1.08334 3.51546 1.08334 6.50004C1.08334 9.48462 3.51542 11.9167 6.5 11.9167C9.48459 11.9167 11.9167 9.48462 11.9167 6.50004C11.9167 3.51546 9.48459 1.08337 6.5 1.08337ZM8.32 7.74587C8.47709 7.90296 8.47709 8.16296 8.32 8.32004C8.23875 8.40129 8.13584 8.43921 8.03292 8.43921C7.93 8.43921 7.82709 8.40129 7.74584 8.32004L6.5 7.07421L5.25417 8.32004C5.17292 8.40129 5.07 8.43921 4.96709 8.43921C4.86417 8.43921 4.76125 8.40129 4.68 8.32004C4.52292 8.16296 4.52292 7.90296 4.68 7.74587L5.92584 6.50004L4.68 5.25421C4.52292 5.09712 4.52292 4.83712 4.68 4.68004C4.83709 4.52296 5.09709 4.52296 5.25417 4.68004L6.5 5.92587L7.74584 4.68004C7.90292 4.52296 8.16292 4.52296 8.32 4.68004C8.47709 4.83712 8.47709 5.09712 8.32 5.25421L7.07417 6.50004L8.32 7.74587Z" fill="#FF1624"/>
</svg>
