<svg width="198" height="36" viewBox="0 0 198 36" fill="none" xmlns="http://www.w3.org/2000/svg">
<path d="M2.42469 6.67969V5.72656H3.87C5.46375 5.72656 6.51063 4.82812 6.51063 3.53906C6.51063 2.3125 5.54969 1.44531 4.01063 1.44531C2.51063 1.44531 1.51063 2.27344 1.37 3.53906H0.33094C0.48719 1.69531 1.90125 0.492188 4.04969 0.492188C6.14344 0.492188 7.58875 1.75781 7.58875 3.45312C7.58875 4.74219 6.72157 5.78906 5.37 6.09375V6.14844C6.98719 6.32031 7.95594 7.39844 7.95594 8.95312C7.95594 10.8047 6.29969 12.2344 4.01063 12.2344C1.72157 12.2344 0.11219 10.9297 0.0106277 9.11719H1.04188C1.15907 10.3672 2.34657 11.2734 4.01063 11.2734C5.72157 11.2734 6.86219 10.2969 6.86219 8.92969C6.86219 7.51562 5.81532 6.67969 3.91688 6.67969H2.42469ZM12.0888 11.2422C13.5106 11.2422 14.6278 10.2344 14.6278 8.94531V8.04688L12.2216 8.21094C10.9403 8.29688 10.2294 8.85156 10.2294 9.75C10.2294 10.6328 10.9872 11.2422 12.0888 11.2422ZM11.8778 12.1328C10.2763 12.1328 9.1825 11.1719 9.1825 9.75C9.1825 8.35938 10.2216 7.51562 12.0966 7.39062L14.6278 7.23438V6.53125C14.6278 5.35938 13.8856 4.65625 12.62 4.65625C11.4247 4.65625 10.6591 5.24219 10.4794 6.22656H9.47938C9.59657 4.77344 10.7919 3.74219 12.6434 3.74219C14.495 3.74219 15.6591 4.78125 15.6591 6.4375V12H14.6747V10.4531H14.6513C14.1981 11.4609 13.0888 12.1328 11.8778 12.1328ZM21.3544 3.74219C23.4091 3.74219 24.8153 5.41406 24.8153 7.9375C24.8153 10.4688 23.4169 12.1328 21.3778 12.1328C20.0653 12.1328 19.0419 11.3828 18.6122 10.3281H18.5809V14.6875H17.5497V3.875H18.5263V5.59375H18.5575C19.0028 4.51562 20.0341 3.74219 21.3544 3.74219ZM21.1747 11.2188C22.745 11.2188 23.7606 9.92188 23.7606 7.9375C23.7606 5.96094 22.745 4.65625 21.1747 4.65625C19.6356 4.65625 18.5809 5.98438 18.5809 7.9375C18.5809 9.89844 19.6356 11.2188 21.1747 11.2188ZM28.9325 11.2422C30.3544 11.2422 31.4716 10.2344 31.4716 8.94531V8.04688L29.0653 8.21094C27.7841 8.29688 27.0731 8.85156 27.0731 9.75C27.0731 10.6328 27.8309 11.2422 28.9325 11.2422ZM28.7216 12.1328C27.12 12.1328 26.0263 11.1719 26.0263 9.75C26.0263 8.35938 27.0653 7.51562 28.9403 7.39062L31.4716 7.23438V6.53125C31.4716 5.35938 30.7294 4.65625 29.4638 4.65625C28.2684 4.65625 27.5028 5.24219 27.3231 6.22656H26.3231C26.4403 4.77344 27.6356 3.74219 29.4872 3.74219C31.3388 3.74219 32.5028 4.78125 32.5028 6.4375V12H31.5184V10.4531H31.495C31.0419 11.4609 29.9325 12.1328 28.7216 12.1328ZM37.7997 12.1406C35.3856 12.1406 34.0731 10.4766 34.0731 7.35156C34.0731 2.67969 35.2138 0.867188 38.3466 0.78125C38.5106 0.78125 39.0809 0.757812 39.2059 0.742188C39.8856 0.703125 40.5966 0.570312 40.995 0.375V1.28125C40.745 1.46875 40.0419 1.63281 39.2606 1.67969C39.1278 1.69531 38.5575 1.71875 38.3856 1.71875C36.0341 1.78125 35.2763 2.86719 34.9638 5.71094H35.0106C35.5263 4.60156 36.5888 3.98438 37.9481 3.98438C40.1278 3.98438 41.5341 5.55469 41.5341 8C41.5341 10.5469 40.0966 12.1406 37.7997 12.1406ZM37.7997 11.2188C39.4638 11.2188 40.4716 10.0156 40.4716 8C40.4716 6.0625 39.4638 4.89844 37.7997 4.89844C36.1356 4.89844 35.1278 6.0625 35.1278 8C35.1278 10.0156 36.1356 11.2188 37.7997 11.2188ZM45.6513 11.2422C47.0731 11.2422 48.1903 10.2344 48.1903 8.94531V8.04688L45.7841 8.21094C44.5028 8.29688 43.7919 8.85156 43.7919 9.75C43.7919 10.6328 44.5497 11.2422 45.6513 11.2422ZM45.4403 12.1328C43.8388 12.1328 42.745 11.1719 42.745 9.75C42.745 8.35938 43.7841 7.51562 45.6591 7.39062L48.1903 7.23438V6.53125C48.1903 5.35938 47.4481 4.65625 46.1825 4.65625C44.9872 4.65625 44.2216 5.24219 44.0419 6.22656H43.0419C43.1591 4.77344 44.3544 3.74219 46.2059 3.74219C48.0575 3.74219 49.2216 4.78125 49.2216 6.4375V12H48.2372V10.4531H48.2138C47.7606 11.4609 46.6513 12.1328 45.4403 12.1328ZM56.8153 3.875V4.73438H54.0497V12H53.0263V4.73438H50.2606V3.875H56.8153ZM65.0263 12V3.875H66.0497V12H65.0263ZM60.8622 7.49219H59.1122V11.1406H60.8622C62.0419 11.1406 62.7997 10.4141 62.7997 9.3125C62.7997 8.21094 62.0341 7.49219 60.8622 7.49219ZM58.0888 12V3.875H59.1122V6.63281H60.8778C62.6669 6.63281 63.8231 7.66406 63.8231 9.3125C63.8231 10.9609 62.6669 12 60.8778 12H58.0888ZM71.1356 4.72656H69.0028V7.375H70.9872C72.0966 7.375 72.7059 6.89062 72.7059 6.00781C72.7059 5.19531 72.1434 4.72656 71.1356 4.72656ZM71.0653 8.21875H69.0028V11.1484H71.2528C72.4481 11.1484 73.0888 10.6406 73.0888 9.67188C73.0888 8.70312 72.37 8.21875 71.0653 8.21875ZM67.9794 12V3.875H71.2606C72.7841 3.875 73.7138 4.64844 73.7138 5.91406C73.7138 6.80469 73.12 7.5625 72.2919 7.71875V7.77344C73.3388 7.89062 74.1044 8.60938 74.1044 9.69531C74.1044 11.1484 73.0497 12 71.2997 12H67.9794ZM78.245 11.2422C79.6669 11.2422 80.7841 10.2344 80.7841 8.94531V8.04688L78.3778 8.21094C77.0966 8.29688 76.3856 8.85156 76.3856 9.75C76.3856 10.6328 77.1434 11.2422 78.245 11.2422ZM78.0341 12.1328C76.4325 12.1328 75.3388 11.1719 75.3388 9.75C75.3388 8.35938 76.3778 7.51562 78.2528 7.39062L80.7841 7.23438V6.53125C80.7841 5.35938 80.0419 4.65625 78.7763 4.65625C77.5809 4.65625 76.8153 5.24219 76.6356 6.22656H75.6356C75.7528 4.77344 76.9481 3.74219 78.7997 3.74219C80.6513 3.74219 81.8153 4.78125 81.8153 6.4375V12H80.8309V10.4531H80.8075C80.3544 11.4609 79.245 12.1328 78.0341 12.1328ZM84.7216 12H83.6981V3.875H84.7216V10.4062H84.7763L89.2997 3.875H90.3231V12H89.2997V5.46875H89.2528L84.7216 12ZM84.8544 0.375H85.6434C85.6434 1.29688 86.245 1.96094 87.2059 1.96094C88.1591 1.96094 88.7606 1.29688 88.7606 0.375H89.5497C89.5497 1.71094 88.6122 2.60156 87.2059 2.60156C85.7919 2.60156 84.8544 1.71094 84.8544 0.375ZM92.9481 14.1562H92.0809L92.8309 10.3906H93.9325L92.9481 14.1562ZM102.292 3.74219C104.347 3.74219 105.753 5.41406 105.753 7.9375C105.753 10.4688 104.354 12.1328 102.315 12.1328C101.003 12.1328 99.9794 11.3828 99.5497 10.3281H99.5184V14.6875H98.4872V3.875H99.4638V5.59375H99.495C99.9403 4.51562 100.972 3.74219 102.292 3.74219ZM102.112 11.2188C103.683 11.2188 104.698 9.92188 104.698 7.9375C104.698 5.96094 103.683 4.65625 102.112 4.65625C100.573 4.65625 99.5184 5.98438 99.5184 7.9375C99.5184 9.89844 100.573 11.2188 102.112 11.2188ZM109.87 11.2422C111.292 11.2422 112.409 10.2344 112.409 8.94531V8.04688L110.003 8.21094C108.722 8.29688 108.011 8.85156 108.011 9.75C108.011 10.6328 108.768 11.2422 109.87 11.2422ZM109.659 12.1328C108.057 12.1328 106.964 11.1719 106.964 9.75C106.964 8.35938 108.003 7.51562 109.878 7.39062L112.409 7.23438V6.53125C112.409 5.35938 111.667 4.65625 110.401 4.65625C109.206 4.65625 108.44 5.24219 108.261 6.22656H107.261C107.378 4.77344 108.573 3.74219 110.425 3.74219C112.276 3.74219 113.44 4.78125 113.44 6.4375V12H112.456V10.4531H112.432C111.979 11.4609 110.87 12.1328 109.659 12.1328ZM121.909 6.28906H120.886C120.62 5.375 119.823 4.65625 118.589 4.65625C117.003 4.65625 115.979 5.95312 115.979 7.9375C115.979 9.95312 117.011 11.2188 118.604 11.2188C119.776 11.2188 120.597 10.6094 120.878 9.64844H121.909C121.62 11.1094 120.347 12.1328 118.597 12.1328C116.37 12.1328 114.925 10.5156 114.925 7.9375C114.925 5.39844 116.37 3.74219 118.589 3.74219C120.432 3.74219 121.636 4.90625 121.909 6.28906ZM129.956 6.28906H128.932C128.667 5.375 127.87 4.65625 126.636 4.65625C125.05 4.65625 124.026 5.95312 124.026 7.9375C124.026 9.95312 125.057 11.2188 126.651 11.2188C127.823 11.2188 128.643 10.6094 128.925 9.64844H129.956C129.667 11.1094 128.393 12.1328 126.643 12.1328C124.417 12.1328 122.972 10.5156 122.972 7.9375C122.972 5.39844 124.417 3.74219 126.636 3.74219C128.479 3.74219 129.682 4.90625 129.956 6.28906ZM133.534 7.74219L137.8 12H136.44L132.487 8.03906H132.44V12H131.417V3.875H132.44V7.52344H132.487L136.339 3.875H137.643L133.534 7.74219ZM141.354 11.2422C142.776 11.2422 143.893 10.2344 143.893 8.94531V8.04688L141.487 8.21094C140.206 8.29688 139.495 8.85156 139.495 9.75C139.495 10.6328 140.253 11.2422 141.354 11.2422ZM141.143 12.1328C139.542 12.1328 138.448 11.1719 138.448 9.75C138.448 8.35938 139.487 7.51562 141.362 7.39062L143.893 7.23438V6.53125C143.893 5.35938 143.151 4.65625 141.886 4.65625C140.69 4.65625 139.925 5.24219 139.745 6.22656H138.745C138.862 4.77344 140.057 3.74219 141.909 3.74219C143.761 3.74219 144.925 4.78125 144.925 6.4375V12H143.94V10.4531H143.917C143.464 11.4609 142.354 12.1328 141.143 12.1328ZM149.487 12.1406C147.714 12.1406 146.495 11.25 146.315 9.90625H147.354C147.542 10.7188 148.292 11.2734 149.487 11.2734C150.761 11.2734 151.526 10.6562 151.526 9.72656C151.526 8.69531 150.784 8.21875 149.456 8.21875H148.198V7.36719H149.456C150.62 7.36719 151.253 6.86719 151.253 5.98438C151.253 5.17969 150.651 4.61719 149.511 4.61719C148.37 4.61719 147.643 5.17969 147.487 5.97656H146.479C146.675 4.66406 147.768 3.75 149.503 3.75C151.268 3.75 152.268 4.60938 152.268 5.91406C152.268 6.79688 151.659 7.52344 150.8 7.71094V7.76562C151.862 7.96094 152.55 8.63281 152.55 9.67188C152.55 11.1875 151.323 12.1406 149.487 12.1406ZM161.042 12V3.875H162.065V12H161.042ZM156.878 7.49219H155.128V11.1406H156.878C158.057 11.1406 158.815 10.4141 158.815 9.3125C158.815 8.21094 158.05 7.49219 156.878 7.49219ZM154.104 12V3.875H155.128V6.63281H156.893C158.682 6.63281 159.839 7.66406 159.839 9.3125C159.839 10.9609 158.682 12 156.893 12H154.104ZM167.151 4.72656H165.018V7.375H167.003C168.112 7.375 168.722 6.89062 168.722 6.00781C168.722 5.19531 168.159 4.72656 167.151 4.72656ZM167.081 8.21875H165.018V11.1484H167.268C168.464 11.1484 169.104 10.6406 169.104 9.67188C169.104 8.70312 168.386 8.21875 167.081 8.21875ZM163.995 12V3.875H167.276C168.8 3.875 169.729 4.64844 169.729 5.91406C169.729 6.80469 169.136 7.5625 168.307 7.71875V7.77344C169.354 7.89062 170.12 8.60938 170.12 9.69531C170.12 11.1484 169.065 12 167.315 12H163.995ZM174.261 11.2422C175.682 11.2422 176.8 10.2344 176.8 8.94531V8.04688L174.393 8.21094C173.112 8.29688 172.401 8.85156 172.401 9.75C172.401 10.6328 173.159 11.2422 174.261 11.2422ZM174.05 12.1328C172.448 12.1328 171.354 11.1719 171.354 9.75C171.354 8.35938 172.393 7.51562 174.268 7.39062L176.8 7.23438V6.53125C176.8 5.35938 176.057 4.65625 174.792 4.65625C173.597 4.65625 172.831 5.24219 172.651 6.22656H171.651C171.768 4.77344 172.964 3.74219 174.815 3.74219C176.667 3.74219 177.831 4.78125 177.831 6.4375V12H176.847V10.4531H176.823C176.37 11.4609 175.261 12.1328 174.05 12.1328ZM182.456 8.08594H184.276V4.73438H182.456C181.276 4.73438 180.518 5.39062 180.518 6.45312C180.518 7.42188 181.284 8.08594 182.456 8.08594ZM184.276 12V8.94531H182.573L180.347 12H179.151L181.518 8.77344C180.261 8.51562 179.495 7.66406 179.495 6.46875C179.495 4.86719 180.651 3.875 182.448 3.875H185.3V12H184.276ZM193.815 12.1328C191.604 12.1328 190.112 10.5156 190.112 7.9375C190.112 5.35156 191.612 3.74219 193.815 3.74219C196.026 3.74219 197.518 5.35156 197.518 7.9375C197.518 10.5156 196.026 12.1328 193.815 12.1328ZM193.815 11.2188C195.409 11.2188 196.472 10 196.472 7.9375C196.472 5.875 195.409 4.65625 193.815 4.65625C192.222 4.65625 191.167 5.875 191.167 7.9375C191.167 10 192.222 11.2188 193.815 11.2188ZM25.6513 33.1406C23.2372 33.1406 21.9247 31.4766 21.9247 28.3516C21.9247 23.6797 23.0653 21.8672 26.1981 21.7812C26.3622 21.7812 26.9325 21.7578 27.0575 21.7422C27.7372 21.7031 28.4481 21.5703 28.8466 21.375V22.2812C28.5966 22.4688 27.8934 22.6328 27.1122 22.6797C26.9794 22.6953 26.4091 22.7188 26.2372 22.7188C23.8856 22.7812 23.1278 23.8672 22.8153 26.7109H22.8622C23.3778 25.6016 24.4403 24.9844 25.7997 24.9844C27.9794 24.9844 29.3856 26.5547 29.3856 29C29.3856 31.5469 27.9481 33.1406 25.6513 33.1406ZM25.6513 32.2188C27.3153 32.2188 28.3231 31.0156 28.3231 29C28.3231 27.0625 27.3153 25.8984 25.6513 25.8984C23.9872 25.8984 22.9794 27.0625 22.9794 29C22.9794 31.0156 23.9872 32.2188 25.6513 32.2188ZM33.5028 32.2422C34.9247 32.2422 36.0419 31.2344 36.0419 29.9453V29.0469L33.6356 29.2109C32.3544 29.2969 31.6434 29.8516 31.6434 30.75C31.6434 31.6328 32.4013 32.2422 33.5028 32.2422ZM33.2919 33.1328C31.6903 33.1328 30.5966 32.1719 30.5966 30.75C30.5966 29.3594 31.6356 28.5156 33.5106 28.3906L36.0419 28.2344V27.5312C36.0419 26.3594 35.2997 25.6562 34.0341 25.6562C32.8388 25.6562 32.0731 26.2422 31.8934 27.2266H30.8934C31.0106 25.7734 32.2059 24.7422 34.0575 24.7422C35.9091 24.7422 37.0731 25.7812 37.0731 27.4375V33H36.0888V31.4531H36.0653C35.6122 32.4609 34.5028 33.1328 33.2919 33.1328ZM44.4481 33V29.2188H39.9794V33H38.9559V24.875H39.9794V28.3594H44.4481V24.875H45.4716V33H44.4481ZM49.5263 28.7422L53.7919 33H52.4325L48.4794 29.0391H48.4325V33H47.4091V24.875H48.4325V28.5234H48.4794L52.3309 24.875H53.6356L49.5263 28.7422ZM58.0419 33.1328C55.8309 33.1328 54.3388 31.5156 54.3388 28.9375C54.3388 26.3516 55.8388 24.7422 58.0419 24.7422C60.2528 24.7422 61.745 26.3516 61.745 28.9375C61.745 31.5156 60.2528 33.1328 58.0419 33.1328ZM58.0419 32.2188C59.6356 32.2188 60.6981 31 60.6981 28.9375C60.6981 26.875 59.6356 25.6562 58.0419 25.6562C56.4481 25.6562 55.3934 26.875 55.3934 28.9375C55.3934 31 56.4481 32.2188 58.0419 32.2188ZM66.4247 25.7266H64.2919V28.375H66.2763C67.3856 28.375 67.995 27.8906 67.995 27.0078C67.995 26.1953 67.4325 25.7266 66.4247 25.7266ZM66.3544 29.2188H64.2919V32.1484H66.5419C67.7372 32.1484 68.3778 31.6406 68.3778 30.6719C68.3778 29.7031 67.6591 29.2188 66.3544 29.2188ZM63.2684 33V24.875H66.5497C68.0731 24.875 69.0028 25.6484 69.0028 26.9141C69.0028 27.8047 68.4091 28.5625 67.5809 28.7188V28.7734C68.6278 28.8906 69.3934 29.6094 69.3934 30.6953C69.3934 32.1484 68.3388 33 66.5888 33H63.2684ZM77.5263 27.2891H76.5028C76.2372 26.375 75.4403 25.6562 74.2059 25.6562C72.62 25.6562 71.5966 26.9531 71.5966 28.9375C71.5966 30.9531 72.6278 32.2188 74.2216 32.2188C75.3934 32.2188 76.2138 31.6094 76.495 30.6484H77.5263C77.2372 32.1094 75.9638 33.1328 74.2138 33.1328C71.9872 33.1328 70.5419 31.5156 70.5419 28.9375C70.5419 26.3984 71.9872 24.7422 74.2059 24.7422C76.0497 24.7422 77.2528 25.9062 77.5263 27.2891ZM81.1044 28.7422L85.37 33H84.0106L80.0575 29.0391H80.0106V33H78.9872V24.875H80.0106V28.5234H80.0575L83.9091 24.875H85.2138L81.1044 28.7422ZM87.5419 33H86.5184V24.875H87.5419V31.4062H87.5966L92.12 24.875H93.1434V33H92.12V26.4688H92.0731L87.5419 33ZM97.7841 29.6641H97.7606L95.5184 33H94.3622L97.2138 28.9141L94.3934 24.875H95.5653L97.7919 28.1328H97.8153L100.034 24.875H101.198L98.3622 28.875L101.175 33H100.011L97.7841 29.6641ZM111.112 33V25.7344H106.714V33H105.69V24.875H112.136V33H111.112ZM117.878 24.7422C119.932 24.7422 121.339 26.4141 121.339 28.9375C121.339 31.4688 119.94 33.1328 117.901 33.1328C116.589 33.1328 115.565 32.3828 115.136 31.3281H115.104V35.6875H114.073V24.875H115.05V26.5938H115.081C115.526 25.5156 116.557 24.7422 117.878 24.7422ZM117.698 32.2188C119.268 32.2188 120.284 30.9219 120.284 28.9375C120.284 26.9609 119.268 25.6562 117.698 25.6562C116.159 25.6562 115.104 26.9844 115.104 28.9375C115.104 30.8984 116.159 32.2188 117.698 32.2188ZM126.167 33.1328C123.956 33.1328 122.464 31.5156 122.464 28.9375C122.464 26.3516 123.964 24.7422 126.167 24.7422C128.378 24.7422 129.87 26.3516 129.87 28.9375C129.87 31.5156 128.378 33.1328 126.167 33.1328ZM126.167 32.2188C127.761 32.2188 128.823 31 128.823 28.9375C128.823 26.875 127.761 25.6562 126.167 25.6562C124.573 25.6562 123.518 26.875 123.518 28.9375C123.518 31 124.573 32.2188 126.167 32.2188ZM136.768 32.1406V25.7344H133.268C133.245 26.1562 133.042 29.0469 132.995 29.4922C132.909 30.5781 132.706 31.5469 132.268 32.0859V32.1406H136.768ZM131.362 35.1484H130.393V32.1406H131.05C131.659 31.7422 131.932 30.6641 132.034 29.4609C132.073 28.9922 132.331 25.3203 132.354 24.875H137.8V32.1406H139.112V35.1484H138.136V33H131.362V35.1484ZM140.768 35.9375C140.604 35.9375 140.37 35.9141 140.253 35.8906V35.0078C140.378 35.0391 140.581 35.0547 140.745 35.0547C141.487 35.0547 141.893 34.6797 142.253 33.6641L142.472 33.0547L139.425 24.875H140.534L143.003 31.9688H143.026L145.503 24.875H146.589L143.393 33.4922C142.682 35.4062 142.104 35.9375 140.768 35.9375ZM149.901 28.7422L154.167 33H152.807L148.854 29.0391H148.807V33H147.784V24.875H148.807V28.5234H148.854L152.706 24.875H154.011L149.901 28.7422ZM161.011 24.875V25.7344H158.245V33H157.222V25.7344H154.456V24.875H161.011ZM164.425 32.2422C165.847 32.2422 166.964 31.2344 166.964 29.9453V29.0469L164.557 29.2109C163.276 29.2969 162.565 29.8516 162.565 30.75C162.565 31.6328 163.323 32.2422 164.425 32.2422ZM164.214 33.1328C162.612 33.1328 161.518 32.1719 161.518 30.75C161.518 29.3594 162.557 28.5156 164.432 28.3906L166.964 28.2344V27.5312C166.964 26.3594 166.222 25.6562 164.956 25.6562C163.761 25.6562 162.995 26.2422 162.815 27.2266H161.815C161.932 25.7734 163.128 24.7422 164.979 24.7422C166.831 24.7422 167.995 25.7812 167.995 27.4375V33H167.011V31.4531H166.987C166.534 32.4609 165.425 33.1328 164.214 33.1328ZM172.597 29.6641H172.573L170.331 33H169.175L172.026 28.9141L169.206 24.875H170.378L172.604 28.1328H172.628L174.847 24.875H176.011L173.175 28.875L175.987 33H174.823L172.597 29.6641Z" fill="#757575" fill-opacity="0.8"/>
</svg>
