<svg width="198" height="36" viewBox="0 0 198 36" fill="none" xmlns="http://www.w3.org/2000/svg">
<path d="M2.42548 6.67969V5.72656H3.8708C5.46455 5.72656 6.51142 4.82812 6.51142 3.53906C6.51142 2.3125 5.55048 1.44531 4.01142 1.44531C2.51142 1.44531 1.51142 2.27344 1.3708 3.53906H0.331734C0.487984 1.69531 1.90205 0.492188 4.05048 0.492188C6.14423 0.492188 7.58955 1.75781 7.58955 3.45312C7.58955 4.74219 6.72236 5.78906 5.3708 6.09375V6.14844C6.98798 6.32031 7.95673 7.39844 7.95673 8.95312C7.95673 10.8047 6.30048 12.2344 4.01142 12.2344C1.72236 12.2344 0.112984 10.9297 0.0114212 9.11719H1.04267C1.15986 10.3672 2.34736 11.2734 4.01142 11.2734C5.72236 11.2734 6.86298 10.2969 6.86298 8.92969C6.86298 7.51562 5.81611 6.67969 3.91767 6.67969H2.42548ZM12.0895 11.2422C13.5114 11.2422 14.6286 10.2344 14.6286 8.94531V8.04688L12.2224 8.21094C10.9411 8.29688 10.2302 8.85156 10.2302 9.75C10.2302 10.6328 10.988 11.2422 12.0895 11.2422ZM11.8786 12.1328C10.277 12.1328 9.1833 11.1719 9.1833 9.75C9.1833 8.35938 10.2224 7.51562 12.0974 7.39062L14.6286 7.23438V6.53125C14.6286 5.35938 13.8864 4.65625 12.6208 4.65625C11.4255 4.65625 10.6599 5.24219 10.4802 6.22656H9.48017C9.59736 4.77344 10.7927 3.74219 12.6442 3.74219C14.4958 3.74219 15.6599 4.78125 15.6599 6.4375V12H14.6755V10.4531H14.652C14.1989 11.4609 13.0895 12.1328 11.8786 12.1328ZM21.3552 3.74219C23.4099 3.74219 24.8161 5.41406 24.8161 7.9375C24.8161 10.4688 23.4177 12.1328 21.3786 12.1328C20.0661 12.1328 19.0427 11.3828 18.613 10.3281H18.5817V14.6875H17.5505V3.875H18.527V5.59375H18.5583C19.0036 4.51562 20.0349 3.74219 21.3552 3.74219ZM21.1755 11.2188C22.7458 11.2188 23.7614 9.92188 23.7614 7.9375C23.7614 5.96094 22.7458 4.65625 21.1755 4.65625C19.6364 4.65625 18.5817 5.98438 18.5817 7.9375C18.5817 9.89844 19.6364 11.2188 21.1755 11.2188ZM28.9333 11.2422C30.3552 11.2422 31.4724 10.2344 31.4724 8.94531V8.04688L29.0661 8.21094C27.7849 8.29688 27.0739 8.85156 27.0739 9.75C27.0739 10.6328 27.8317 11.2422 28.9333 11.2422ZM28.7224 12.1328C27.1208 12.1328 26.027 11.1719 26.027 9.75C26.027 8.35938 27.0661 7.51562 28.9411 7.39062L31.4724 7.23438V6.53125C31.4724 5.35938 30.7302 4.65625 29.4645 4.65625C28.2692 4.65625 27.5036 5.24219 27.3239 6.22656H26.3239C26.4411 4.77344 27.6364 3.74219 29.488 3.74219C31.3395 3.74219 32.5036 4.78125 32.5036 6.4375V12H31.5192V10.4531H31.4958C31.0427 11.4609 29.9333 12.1328 28.7224 12.1328ZM37.8005 12.1406C35.3864 12.1406 34.0739 10.4766 34.0739 7.35156C34.0739 2.67969 35.2145 0.867188 38.3474 0.78125C38.5114 0.78125 39.0817 0.757812 39.2067 0.742188C39.8864 0.703125 40.5974 0.570312 40.9958 0.375V1.28125C40.7458 1.46875 40.0427 1.63281 39.2614 1.67969C39.1286 1.69531 38.5583 1.71875 38.3864 1.71875C36.0349 1.78125 35.277 2.86719 34.9645 5.71094H35.0114C35.527 4.60156 36.5895 3.98438 37.9489 3.98438C40.1286 3.98438 41.5349 5.55469 41.5349 8C41.5349 10.5469 40.0974 12.1406 37.8005 12.1406ZM37.8005 11.2188C39.4645 11.2188 40.4724 10.0156 40.4724 8C40.4724 6.0625 39.4645 4.89844 37.8005 4.89844C36.1364 4.89844 35.1286 6.0625 35.1286 8C35.1286 10.0156 36.1364 11.2188 37.8005 11.2188ZM45.652 11.2422C47.0739 11.2422 48.1911 10.2344 48.1911 8.94531V8.04688L45.7849 8.21094C44.5036 8.29688 43.7927 8.85156 43.7927 9.75C43.7927 10.6328 44.5505 11.2422 45.652 11.2422ZM45.4411 12.1328C43.8395 12.1328 42.7458 11.1719 42.7458 9.75C42.7458 8.35938 43.7849 7.51562 45.6599 7.39062L48.1911 7.23438V6.53125C48.1911 5.35938 47.4489 4.65625 46.1833 4.65625C44.988 4.65625 44.2224 5.24219 44.0427 6.22656H43.0427C43.1599 4.77344 44.3552 3.74219 46.2067 3.74219C48.0583 3.74219 49.2224 4.78125 49.2224 6.4375V12H48.238V10.4531H48.2145C47.7614 11.4609 46.652 12.1328 45.4411 12.1328ZM56.8161 3.875V4.73438H54.0505V12H53.027V4.73438H50.2614V3.875H56.8161ZM65.027 12V3.875H66.0505V12H65.027ZM60.863 7.49219H59.113V11.1406H60.863C62.0427 11.1406 62.8005 10.4141 62.8005 9.3125C62.8005 8.21094 62.0349 7.49219 60.863 7.49219ZM58.0895 12V3.875H59.113V6.63281H60.8786C62.6677 6.63281 63.8239 7.66406 63.8239 9.3125C63.8239 10.9609 62.6677 12 60.8786 12H58.0895ZM71.1364 4.72656H69.0036V7.375H70.988C72.0974 7.375 72.7067 6.89062 72.7067 6.00781C72.7067 5.19531 72.1442 4.72656 71.1364 4.72656ZM71.0661 8.21875H69.0036V11.1484H71.2536C72.4489 11.1484 73.0895 10.6406 73.0895 9.67188C73.0895 8.70312 72.3708 8.21875 71.0661 8.21875ZM67.9802 12V3.875H71.2614C72.7849 3.875 73.7145 4.64844 73.7145 5.91406C73.7145 6.80469 73.1208 7.5625 72.2927 7.71875V7.77344C73.3395 7.89062 74.1052 8.60938 74.1052 9.69531C74.1052 11.1484 73.0505 12 71.3005 12H67.9802ZM78.2458 11.2422C79.6677 11.2422 80.7849 10.2344 80.7849 8.94531V8.04688L78.3786 8.21094C77.0974 8.29688 76.3864 8.85156 76.3864 9.75C76.3864 10.6328 77.1442 11.2422 78.2458 11.2422ZM78.0349 12.1328C76.4333 12.1328 75.3395 11.1719 75.3395 9.75C75.3395 8.35938 76.3786 7.51562 78.2536 7.39062L80.7849 7.23438V6.53125C80.7849 5.35938 80.0427 4.65625 78.777 4.65625C77.5817 4.65625 76.8161 5.24219 76.6364 6.22656H75.6364C75.7536 4.77344 76.9489 3.74219 78.8005 3.74219C80.652 3.74219 81.8161 4.78125 81.8161 6.4375V12H80.8317V10.4531H80.8083C80.3552 11.4609 79.2458 12.1328 78.0349 12.1328ZM84.7224 12H83.6989V3.875H84.7224V10.4062H84.777L89.3005 3.875H90.3239V12H89.3005V5.46875H89.2536L84.7224 12ZM84.8552 0.375H85.6442C85.6442 1.29688 86.2458 1.96094 87.2067 1.96094C88.1599 1.96094 88.7614 1.29688 88.7614 0.375H89.5505C89.5505 1.71094 88.613 2.60156 87.2067 2.60156C85.7927 2.60156 84.8552 1.71094 84.8552 0.375ZM92.9489 14.1562H92.0817L92.8317 10.3906H93.9333L92.9489 14.1562ZM102.293 3.74219C104.347 3.74219 105.754 5.41406 105.754 7.9375C105.754 10.4688 104.355 12.1328 102.316 12.1328C101.004 12.1328 99.9802 11.3828 99.5505 10.3281H99.5192V14.6875H98.488V3.875H99.4645V5.59375H99.4958C99.9411 4.51562 100.972 3.74219 102.293 3.74219ZM102.113 11.2188C103.683 11.2188 104.699 9.92188 104.699 7.9375C104.699 5.96094 103.683 4.65625 102.113 4.65625C100.574 4.65625 99.5192 5.98438 99.5192 7.9375C99.5192 9.89844 100.574 11.2188 102.113 11.2188ZM109.871 11.2422C111.293 11.2422 112.41 10.2344 112.41 8.94531V8.04688L110.004 8.21094C108.722 8.29688 108.011 8.85156 108.011 9.75C108.011 10.6328 108.769 11.2422 109.871 11.2422ZM109.66 12.1328C108.058 12.1328 106.965 11.1719 106.965 9.75C106.965 8.35938 108.004 7.51562 109.879 7.39062L112.41 7.23438V6.53125C112.41 5.35938 111.668 4.65625 110.402 4.65625C109.207 4.65625 108.441 5.24219 108.261 6.22656H107.261C107.379 4.77344 108.574 3.74219 110.425 3.74219C112.277 3.74219 113.441 4.78125 113.441 6.4375V12H112.457V10.4531H112.433C111.98 11.4609 110.871 12.1328 109.66 12.1328ZM121.91 6.28906H120.886C120.621 5.375 119.824 4.65625 118.59 4.65625C117.004 4.65625 115.98 5.95312 115.98 7.9375C115.98 9.95312 117.011 11.2188 118.605 11.2188C119.777 11.2188 120.597 10.6094 120.879 9.64844H121.91C121.621 11.1094 120.347 12.1328 118.597 12.1328C116.371 12.1328 114.925 10.5156 114.925 7.9375C114.925 5.39844 116.371 3.74219 118.59 3.74219C120.433 3.74219 121.636 4.90625 121.91 6.28906ZM129.957 6.28906H128.933C128.668 5.375 127.871 4.65625 126.636 4.65625C125.05 4.65625 124.027 5.95312 124.027 7.9375C124.027 9.95312 125.058 11.2188 126.652 11.2188C127.824 11.2188 128.644 10.6094 128.925 9.64844H129.957C129.668 11.1094 128.394 12.1328 126.644 12.1328C124.418 12.1328 122.972 10.5156 122.972 7.9375C122.972 5.39844 124.418 3.74219 126.636 3.74219C128.48 3.74219 129.683 4.90625 129.957 6.28906ZM133.535 7.74219L137.8 12H136.441L132.488 8.03906H132.441V12H131.418V3.875H132.441V7.52344H132.488L136.34 3.875H137.644L133.535 7.74219ZM141.355 11.2422C142.777 11.2422 143.894 10.2344 143.894 8.94531V8.04688L141.488 8.21094C140.207 8.29688 139.496 8.85156 139.496 9.75C139.496 10.6328 140.254 11.2422 141.355 11.2422ZM141.144 12.1328C139.543 12.1328 138.449 11.1719 138.449 9.75C138.449 8.35938 139.488 7.51562 141.363 7.39062L143.894 7.23438V6.53125C143.894 5.35938 143.152 4.65625 141.886 4.65625C140.691 4.65625 139.925 5.24219 139.746 6.22656H138.746C138.863 4.77344 140.058 3.74219 141.91 3.74219C143.761 3.74219 144.925 4.78125 144.925 6.4375V12H143.941V10.4531H143.918C143.465 11.4609 142.355 12.1328 141.144 12.1328ZM149.488 12.1406C147.715 12.1406 146.496 11.25 146.316 9.90625H147.355C147.543 10.7188 148.293 11.2734 149.488 11.2734C150.761 11.2734 151.527 10.6562 151.527 9.72656C151.527 8.69531 150.785 8.21875 149.457 8.21875H148.199V7.36719H149.457C150.621 7.36719 151.254 6.86719 151.254 5.98438C151.254 5.17969 150.652 4.61719 149.511 4.61719C148.371 4.61719 147.644 5.17969 147.488 5.97656H146.48C146.675 4.66406 147.769 3.75 149.504 3.75C151.269 3.75 152.269 4.60938 152.269 5.91406C152.269 6.79688 151.66 7.52344 150.8 7.71094V7.76562C151.863 7.96094 152.55 8.63281 152.55 9.67188C152.55 11.1875 151.324 12.1406 149.488 12.1406ZM161.043 12V3.875H162.066V12H161.043ZM156.879 7.49219H155.129V11.1406H156.879C158.058 11.1406 158.816 10.4141 158.816 9.3125C158.816 8.21094 158.05 7.49219 156.879 7.49219ZM154.105 12V3.875H155.129V6.63281H156.894C158.683 6.63281 159.84 7.66406 159.84 9.3125C159.84 10.9609 158.683 12 156.894 12H154.105ZM167.152 4.72656H165.019V7.375H167.004C168.113 7.375 168.722 6.89062 168.722 6.00781C168.722 5.19531 168.16 4.72656 167.152 4.72656ZM167.082 8.21875H165.019V11.1484H167.269C168.465 11.1484 169.105 10.6406 169.105 9.67188C169.105 8.70312 168.386 8.21875 167.082 8.21875ZM163.996 12V3.875H167.277C168.8 3.875 169.73 4.64844 169.73 5.91406C169.73 6.80469 169.136 7.5625 168.308 7.71875V7.77344C169.355 7.89062 170.121 8.60938 170.121 9.69531C170.121 11.1484 169.066 12 167.316 12H163.996ZM174.261 11.2422C175.683 11.2422 176.8 10.2344 176.8 8.94531V8.04688L174.394 8.21094C173.113 8.29688 172.402 8.85156 172.402 9.75C172.402 10.6328 173.16 11.2422 174.261 11.2422ZM174.05 12.1328C172.449 12.1328 171.355 11.1719 171.355 9.75C171.355 8.35938 172.394 7.51562 174.269 7.39062L176.8 7.23438V6.53125C176.8 5.35938 176.058 4.65625 174.793 4.65625C173.597 4.65625 172.832 5.24219 172.652 6.22656H171.652C171.769 4.77344 172.965 3.74219 174.816 3.74219C176.668 3.74219 177.832 4.78125 177.832 6.4375V12H176.847V10.4531H176.824C176.371 11.4609 175.261 12.1328 174.05 12.1328ZM182.457 8.08594H184.277V4.73438H182.457C181.277 4.73438 180.519 5.39062 180.519 6.45312C180.519 7.42188 181.285 8.08594 182.457 8.08594ZM184.277 12V8.94531H182.574L180.347 12H179.152L181.519 8.77344C180.261 8.51562 179.496 7.66406 179.496 6.46875C179.496 4.86719 180.652 3.875 182.449 3.875H185.3V12H184.277ZM193.816 12.1328C191.605 12.1328 190.113 10.5156 190.113 7.9375C190.113 5.35156 191.613 3.74219 193.816 3.74219C196.027 3.74219 197.519 5.35156 197.519 7.9375C197.519 10.5156 196.027 12.1328 193.816 12.1328ZM193.816 11.2188C195.41 11.2188 196.472 10 196.472 7.9375C196.472 5.875 195.41 4.65625 193.816 4.65625C192.222 4.65625 191.168 5.875 191.168 7.9375C191.168 10 192.222 11.2188 193.816 11.2188ZM25.652 33.1406C23.238 33.1406 21.9255 31.4766 21.9255 28.3516C21.9255 23.6797 23.0661 21.8672 26.1989 21.7812C26.363 21.7812 26.9333 21.7578 27.0583 21.7422C27.738 21.7031 28.4489 21.5703 28.8474 21.375V22.2812C28.5974 22.4688 27.8942 22.6328 27.113 22.6797C26.9802 22.6953 26.4099 22.7188 26.238 22.7188C23.8864 22.7812 23.1286 23.8672 22.8161 26.7109H22.863C23.3786 25.6016 24.4411 24.9844 25.8005 24.9844C27.9802 24.9844 29.3864 26.5547 29.3864 29C29.3864 31.5469 27.9489 33.1406 25.652 33.1406ZM25.652 32.2188C27.3161 32.2188 28.3239 31.0156 28.3239 29C28.3239 27.0625 27.3161 25.8984 25.652 25.8984C23.988 25.8984 22.9802 27.0625 22.9802 29C22.9802 31.0156 23.988 32.2188 25.652 32.2188ZM33.5036 32.2422C34.9255 32.2422 36.0427 31.2344 36.0427 29.9453V29.0469L33.6364 29.2109C32.3552 29.2969 31.6442 29.8516 31.6442 30.75C31.6442 31.6328 32.402 32.2422 33.5036 32.2422ZM33.2927 33.1328C31.6911 33.1328 30.5974 32.1719 30.5974 30.75C30.5974 29.3594 31.6364 28.5156 33.5114 28.3906L36.0427 28.2344V27.5312C36.0427 26.3594 35.3005 25.6562 34.0349 25.6562C32.8395 25.6562 32.0739 26.2422 31.8942 27.2266H30.8942C31.0114 25.7734 32.2067 24.7422 34.0583 24.7422C35.9099 24.7422 37.0739 25.7812 37.0739 27.4375V33H36.0895V31.4531H36.0661C35.613 32.4609 34.5036 33.1328 33.2927 33.1328ZM44.4489 33V29.2188H39.9802V33H38.9567V24.875H39.9802V28.3594H44.4489V24.875H45.4724V33H44.4489ZM49.527 28.7422L53.7927 33H52.4333L48.4802 29.0391H48.4333V33H47.4099V24.875H48.4333V28.5234H48.4802L52.3317 24.875H53.6364L49.527 28.7422ZM58.0427 33.1328C55.8317 33.1328 54.3395 31.5156 54.3395 28.9375C54.3395 26.3516 55.8395 24.7422 58.0427 24.7422C60.2536 24.7422 61.7458 26.3516 61.7458 28.9375C61.7458 31.5156 60.2536 33.1328 58.0427 33.1328ZM58.0427 32.2188C59.6364 32.2188 60.6989 31 60.6989 28.9375C60.6989 26.875 59.6364 25.6562 58.0427 25.6562C56.4489 25.6562 55.3942 26.875 55.3942 28.9375C55.3942 31 56.4489 32.2188 58.0427 32.2188ZM66.4255 25.7266H64.2927V28.375H66.277C67.3864 28.375 67.9958 27.8906 67.9958 27.0078C67.9958 26.1953 67.4333 25.7266 66.4255 25.7266ZM66.3552 29.2188H64.2927V32.1484H66.5427C67.738 32.1484 68.3786 31.6406 68.3786 30.6719C68.3786 29.7031 67.6599 29.2188 66.3552 29.2188ZM63.2692 33V24.875H66.5505C68.0739 24.875 69.0036 25.6484 69.0036 26.9141C69.0036 27.8047 68.4099 28.5625 67.5817 28.7188V28.7734C68.6286 28.8906 69.3942 29.6094 69.3942 30.6953C69.3942 32.1484 68.3395 33 66.5895 33H63.2692ZM77.527 27.2891H76.5036C76.238 26.375 75.4411 25.6562 74.2067 25.6562C72.6208 25.6562 71.5974 26.9531 71.5974 28.9375C71.5974 30.9531 72.6286 32.2188 74.2224 32.2188C75.3942 32.2188 76.2145 31.6094 76.4958 30.6484H77.527C77.238 32.1094 75.9645 33.1328 74.2145 33.1328C71.988 33.1328 70.5427 31.5156 70.5427 28.9375C70.5427 26.3984 71.988 24.7422 74.2067 24.7422C76.0505 24.7422 77.2536 25.9062 77.527 27.2891ZM81.1052 28.7422L85.3708 33H84.0114L80.0583 29.0391H80.0114V33H78.988V24.875H80.0114V28.5234H80.0583L83.9099 24.875H85.2145L81.1052 28.7422ZM87.5427 33H86.5192V24.875H87.5427V31.4062H87.5974L92.1208 24.875H93.1442V33H92.1208V26.4688H92.0739L87.5427 33ZM97.7849 29.6641H97.7614L95.5192 33H94.363L97.2145 28.9141L94.3942 24.875H95.5661L97.7927 28.1328H97.8161L100.035 24.875H101.199L98.363 28.875L101.175 33H100.011L97.7849 29.6641ZM111.113 33V25.7344H106.715V33H105.691V24.875H112.136V33H111.113ZM117.879 24.7422C119.933 24.7422 121.34 26.4141 121.34 28.9375C121.34 31.4688 119.941 33.1328 117.902 33.1328C116.59 33.1328 115.566 32.3828 115.136 31.3281H115.105V35.6875H114.074V24.875H115.05V26.5938H115.082C115.527 25.5156 116.558 24.7422 117.879 24.7422ZM117.699 32.2188C119.269 32.2188 120.285 30.9219 120.285 28.9375C120.285 26.9609 119.269 25.6562 117.699 25.6562C116.16 25.6562 115.105 26.9844 115.105 28.9375C115.105 30.8984 116.16 32.2188 117.699 32.2188ZM126.168 33.1328C123.957 33.1328 122.465 31.5156 122.465 28.9375C122.465 26.3516 123.965 24.7422 126.168 24.7422C128.379 24.7422 129.871 26.3516 129.871 28.9375C129.871 31.5156 128.379 33.1328 126.168 33.1328ZM126.168 32.2188C127.761 32.2188 128.824 31 128.824 28.9375C128.824 26.875 127.761 25.6562 126.168 25.6562C124.574 25.6562 123.519 26.875 123.519 28.9375C123.519 31 124.574 32.2188 126.168 32.2188ZM136.769 32.1406V25.7344H133.269C133.246 26.1562 133.043 29.0469 132.996 29.4922C132.91 30.5781 132.707 31.5469 132.269 32.0859V32.1406H136.769ZM131.363 35.1484H130.394V32.1406H131.05C131.66 31.7422 131.933 30.6641 132.035 29.4609C132.074 28.9922 132.332 25.3203 132.355 24.875H137.8V32.1406H139.113V35.1484H138.136V33H131.363V35.1484ZM140.769 35.9375C140.605 35.9375 140.371 35.9141 140.254 35.8906V35.0078C140.379 35.0391 140.582 35.0547 140.746 35.0547C141.488 35.0547 141.894 34.6797 142.254 33.6641L142.472 33.0547L139.425 24.875H140.535L143.004 31.9688H143.027L145.504 24.875H146.59L143.394 33.4922C142.683 35.4062 142.105 35.9375 140.769 35.9375ZM149.902 28.7422L154.168 33H152.808L148.855 29.0391H148.808V33H147.785V24.875H148.808V28.5234H148.855L152.707 24.875H154.011L149.902 28.7422ZM161.011 24.875V25.7344H158.246V33H157.222V25.7344H154.457V24.875H161.011ZM164.425 32.2422C165.847 32.2422 166.965 31.2344 166.965 29.9453V29.0469L164.558 29.2109C163.277 29.2969 162.566 29.8516 162.566 30.75C162.566 31.6328 163.324 32.2422 164.425 32.2422ZM164.215 33.1328C162.613 33.1328 161.519 32.1719 161.519 30.75C161.519 29.3594 162.558 28.5156 164.433 28.3906L166.965 28.2344V27.5312C166.965 26.3594 166.222 25.6562 164.957 25.6562C163.761 25.6562 162.996 26.2422 162.816 27.2266H161.816C161.933 25.7734 163.129 24.7422 164.98 24.7422C166.832 24.7422 167.996 25.7812 167.996 27.4375V33H167.011V31.4531H166.988C166.535 32.4609 165.425 33.1328 164.215 33.1328ZM172.597 29.6641H172.574L170.332 33H169.175L172.027 28.9141L169.207 24.875H170.379L172.605 28.1328H172.629L174.847 24.875H176.011L173.175 28.875L175.988 33H174.824L172.597 29.6641Z" fill="#757575" fill-opacity="0.8"/>
</svg>
